<?xml version="1.0" encoding="UTF-8"?>
<svg width="130px" height="300px" viewBox="0 0 181 398" version="1.1" xmlns="http://www.w3.org/2000/svg" xmlns:xlink="http://www.w3.org/1999/xlink">
    <!-- Generator: Sketch 55.1 (78136) - https://sketchapp.com -->
    <title>Group 23 Copy</title>
    <desc>Created with Sketch.</desc>
    <g id="Use-Cases-Page-1114" stroke="none" stroke-width="1" fill="none" fill-rule="evenodd">
        <g id="Tupelo---Use-Cases---Full-Page" transform="translate(0.000000, -321.000000)">
            <g id="Section-1" transform="translate(-82.000000, 36.000000)">
                <g id="Group-23-Copy" transform="translate(131.000000, 488.500000) scale(-1, 1) translate(-131.000000, -488.500000) translate(0.000000, 274.000000)">
                    <path d="M219.334187,0.263877401 C149.783013,14.0199083 115.007426,48.9388523 115.007426,105.020709 C115.007426,189.143495 67.5813896,175.090251 48.1074728,279.82604 C28.633556,384.56183 199.258174,387.63899 183.759685,421.07883 C173.427359,443.372056 185.285526,413.787971 219.334187,332.326575 L219.334187,0.263877401 Z" id="Path-12" fill="#5a97ff" opacity="0.1"></path>
                    <path d="M80,148.966687 C89.1126984,148.966687 97,135.627417 97,129 C97,122.372583 89.6126984,117 80.5,117 C71.3873016,117 55.4006681,120.592213 64,129 C72.5993319,137.407787 70.8873016,148.966687 80,148.966687 Z" id="Oval" fill="#5a97ff"></path>
                    <g id="Group-11" transform="translate(0.000000, 79.000000)" stroke="#5a97ff" stroke-linecap="round" stroke-linejoin="round" stroke-width="2">
                        <g id="Group-10" transform="translate(60.000000, 84.000000)">
                            <path d="M2.84217094e-14,0.5 L7.11046073,0.5" id="Path-5"></path>
                            <path d="M20,0.5 L27.1104607,0.5" id="Path-5-Copy"></path>
                            <path d="M40,0.5 L47.1104607,0.5" id="Path-5-Copy-2"></path>
                            <path d="M60,0.5 L67.1104607,0.5" id="Path-5-Copy-3"></path>
                            <path d="M80,0.5 L87.1104607,0.5" id="Path-5-Copy-4"></path>
                            <path d="M100,0.5 L107.110461,0.5" id="Path-5-Copy-5"></path>
                        </g>
                        <g id="Group-10-Copy-13" transform="translate(80.000000, 21.000000)">
                            <path d="M2.84217094e-14,0.5 L7.11046073,0.5" id="Path-5"></path>
                            <path d="M20,0.5 L27.1104607,0.5" id="Path-5-Copy"></path>
                            <path d="M40,0.5 L47.1104607,0.5" id="Path-5-Copy-2"></path>
                            <path d="M60,0.5 L67.1104607,0.5" id="Path-5-Copy-3"></path>
                            <path d="M80,0.5 L87.1104607,0.5" id="Path-5-Copy-4"></path>
                        </g>
                        <g id="Group-10-Copy-14" transform="translate(140.000000, 0.000000)">
                            <path d="M2.84217094e-14,0.5 L7.11046073,0.5" id="Path-5"></path>
                            <path d="M20,0.5 L27.1104607,0.5" id="Path-5-Copy"></path>
                        </g>
                        <g id="Group-10-Copy" transform="translate(70.000000, 105.000000)">
                            <path d="M2.84217094e-14,0.5 L7.11046073,0.5" id="Path-5"></path>
                            <path d="M20,0.5 L27.1104607,0.5" id="Path-5-Copy"></path>
                            <path d="M40,0.5 L47.1104607,0.5" id="Path-5-Copy-2"></path>
                            <path d="M100,0.5 L107.110461,0.5" id="Path-5-Copy-5"></path>
                        </g>
                        <g id="Group-10-Copy-3" transform="translate(40.000000, 126.000000)">
                            <path d="M2.84217094e-14,0.5 L7.11046073,0.5" id="Path-5"></path>
                            <path d="M20,0.5 L27.1104607,0.5" id="Path-5-Copy"></path>
                            <path d="M40,0.5 L47.1104607,0.5" id="Path-5-Copy-2"></path>
                            <path d="M60,0.5 L67.1104607,0.5" id="Path-5-Copy-3"></path>
                        </g>
                        <g id="Group-10-Copy-2" transform="translate(100.000000, 147.000000)">
                            <path d="M0,0.5 L7.11046073,0.5" id="Path-5-Copy"></path>
                            <path d="M20,0.5 L27.1104607,0.5" id="Path-5-Copy-2"></path>
                            <path d="M40,0.5 L47.1104607,0.5" id="Path-5-Copy-3"></path>
                            <path d="M60,0.5 L67.1104607,0.5" id="Path-5-Copy-4"></path>
                        </g>
                        <g id="Group-10-Copy-5" transform="translate(40.000000, 168.000000)">
                            <path d="M2.84217094e-14,0.5 L7.11046073,0.5" id="Path-5"></path>
                            <path d="M60,0.5 L67.1104607,0.5" id="Path-5-Copy-3"></path>
                            <path d="M80,0.5 L87.1104607,0.5" id="Path-5-Copy-4"></path>
                            <path d="M100,0.5 L107.110461,0.5" id="Path-5-Copy-5"></path>
                            <path d="M120,0.5 L127.110461,0.5" id="Path-5-Copy-6"></path>
                        </g>
                        <g id="Group-10-Copy-4" transform="translate(90.000000, 189.000000)">
                            <path d="M2.84217094e-14,0.5 L7.11046073,0.5" id="Path-5"></path>
                            <path d="M20,0.5 L27.1104607,0.5" id="Path-5-Copy"></path>
                            <path d="M40,0.5 L47.1104607,0.5" id="Path-5-Copy-2"></path>
                            <path d="M60,0.5 L67.1104607,0.5" id="Path-5-Copy-3"></path>
                            <path d="M80,0.5 L87.1104607,0.5" id="Path-5-Copy-4"></path>
                        </g>
                        <g id="Group-10-Copy-7" transform="translate(30.000000, 210.000000)">
                            <path d="M2.84217094e-14,0.5 L7.11046073,0.5" id="Path-5"></path>
                            <path d="M60,0.5 L67.1104607,0.5" id="Path-5-Copy-3"></path>
                            <path d="M80,0.5 L87.1104607,0.5" id="Path-5-Copy-4"></path>
                            <path d="M100,0.5 L107.110461,0.5" id="Path-5-Copy-5"></path>
                            <path d="M120,0.5 L127.110461,0.5" id="Path-5-Copy-6"></path>
                        </g>
                        <g id="Group-10-Copy-6" transform="translate(0.000000, 231.000000)">
                            <path d="M2.84217094e-14,0.5 L7.11046073,0.5" id="Path-5"></path>
                            <path d="M20,0.5 L27.1104607,0.5" id="Path-5-Copy"></path>
                            <path d="M80,0.5 L87.1104607,0.5" id="Path-5-Copy-4"></path>
                            <path d="M100,0.5 L107.110461,0.5" id="Path-5-Copy-5"></path>
                            <path d="M120,0.5 L127.110461,0.5" id="Path-5-Copy-6"></path>
                        </g>
                        <g id="Group-10-Copy-9" transform="translate(144.000000, 63.000000)">
                            <path d="M0,0.5 L7.11046073,0.5" id="Path-5-Copy-2"></path>
                            <path d="M20,0.5 L27.1104607,0.5" id="Path-5-Copy-3"></path>
                        </g>
                        <g id="Group-10-Copy-12" transform="translate(174.000000, 42.000000)">
                            <path d="M0,0.5 L7.11046073,0.5" id="Path-5-Copy-2"></path>
                        </g>
                        <g id="Group-10-Copy-8" transform="translate(70.000000, 252.000000)">
                            <path d="M2.84217094e-14,0.5 L7.11046073,0.5" id="Path-5"></path>
                            <path d="M40,0.5 L47.1104607,0.5" id="Path-5-Copy-2"></path>
                            <path d="M80,0.5 L87.1104607,0.5" id="Path-5-Copy-4"></path>
                            <path d="M100,0.5 L107.110461,0.5" id="Path-5-Copy-5"></path>
                        </g>
                    </g>
                </g>
            </g>
        </g>
    </g>
</svg>