<?xml version="1.0" encoding="UTF-8"?>
<svg width="90px" height="200px" viewBox="0 0 181 398" version="1.1" xmlns="http://www.w3.org/2000/svg" xmlns:xlink="http://www.w3.org/1999/xlink">
    <!-- Generator: Sketch 55.1 (78136) - https://sketchapp.com -->
    <title>Group 23 Copy</title>
    <desc>Created with Sketch.</desc>
<g xmlns="http://www.w3.org/2000/svg" id="Use-Cases-Page-1114" stroke="none" stroke-width="1" fill="none" fill-rule="evenodd">
        <g id="Tupelo---Use-Cases---Full-Page" transform="translate(0.000000, -321.000000)">
            <g id="Section-1" transform="translate(-82.000000, 36.000000)">
                <g id="Group-23-Copy" transform="translate(131.000000, 488.500000) scale(-1, 1) translate(-131.000000, -488.500000) translate(0.000000, 274.000000)">
                    <path d="M219.334187,0.263877401 C149.783013,14.0199083 115.007426,48.9388523 115.007426,105.020709 C115.007426,189.143495 67.5813896,175.090251 48.1074728,279.82604 C28.633556,384.56183 199.258174,387.63899 183.759685,421.07883 C173.427359,443.372056 185.285526,413.787971 219.334187,332.326575 L219.334187,0.263877401 Z" id="Path-12" fill="#00c189" opacity="0.200000003"/>
                    <path d="M80,148.966687 C89.1126984,148.966687 97,135.627417 97,129 C97,122.372583 89.6126984,117 80.5,117 C71.3873016,117 55.4006681,120.592213 64,129 C72.5993319,137.407787 70.8873016,148.966687 80,148.966687 Z" id="Oval" fill="#00c189"/>
                    
                </g>
            </g>
        </g>
    </g>
    </svg>