<svg height="311" width="226" xmlns="http://www.w3.org/2000/svg"><mask id="a" fill="#fff"><path d="M.525.166h162.81v201.146H.525z" fill-rule="evenodd"/></mask><g fill="#1dc287" fill-rule="evenodd"><path d="M5.605 161.752c-1.904-1.205-5.093-1.998-7.742-2.657-2.48-.41-2.674-.156-2.829.018-.078.092-.146.18-.485.205-.337.022-.942-.026-2.102-.108l.888-.77c-2.358-.26-5.258-.352-8.022.043-2.767.371-5.352 1.248-7.084 2.276-.367.027-1.192.199-.086-.346-.735.287-1.174.526-1.467.77-.293.248-.453.473-.646.7a3.285 3.285 0 0 1-.839.72c-.417.266-1.016.59-1.98.974 3.265-2.167-1.368.104-.65-.825l.526-.326c-1.187.619-2.514 1.434-3.707 2.235-.606.384-1.157.803-1.669 1.148l-1.32.913c.065.22 1.498-.366-.397.983.797-.502.628-.082.687.145 1.825-1.578 3.035-2.096 4.143-3.078 1.3-.422-.737.526.562.11l1.572-1.143c1.288-.572-1.171.91.822-.018.076-.13.495-.43 1.093-.787.601-.351 1.4-.724 2.2-1.057l-.42.29c1.17-.616 2.953-1.087 2.206-1.33.54-.025 1.085-.003 1.616-.004l-.346-.234c.436-.107.835-.218 1.222-.274.387-.054.75-.097 1.102-.133.696-.09 1.351-.088 2.03-.11.34-.008.682-.043 1.048-.05a20.007 20.007 0 0 0 1.155-.046c.408-.033.846-.071 1.327-.09.479-.025.998-.083 1.572-.131-1.103-.08-.098-.29.5-.316a8.208 8.208 0 0 0-.66-.075 6.96 6.96 0 0 0-.554.012 7.365 7.365 0 0 0-.924.124c-.578.092-1.129.293-2.029.39-.32-.293 2.782-.96.532-.951.311.02.617.026.915.028a20.165 20.165 0 0 0 .877.034c.57.022 1.106-.017 1.6.036.985.079 1.794.184 2.278.651 2.895.326 4.083.15 6.96 1.05l-.116.093c.333-.187.917.008 1.683.313.387.147.82.306 1.303.438a7.55 7.55 0 0 0 1.576.33l-1.472-.634c.139-.184.875.063 1.919.383-.145.039-.143.04.154.252.218-.124 1.134.115 2.056.387.915.287 1.822.641 2.045.671-1.309-.644-3.073-1.027-4.698-1.486.888.067.756-.328 2.075.257m11.92 6.641c1.608 1.049-.611.023.844 1.078 1.81.763-1.644-1.608.2-.98.895.797 2.734 1.46 3.402 1.88-.851-.274-.697.43-.463.702.702.273 1.962 1.38 3.006 2.093-2.418-1.97 2.288 1.27.138-.559.338-.144 2.907 1.304 3.749 2.173-.194.13-.96-.453-1.625-.885-.757-.018 1.512 1.291 1.66 1.858 2.777 1.178 10.457 6.766 8.81 4.446-.722-.741-1.56-1.063-2.478-1.673 2.404 1.946-.266.41-.575.392-.981-.883-2.998-1.95-2.384-1.92l1.903.926c-5.342-4.022-12.963-9.192-19.885-12.654a91.77 91.77 0 0 1 2.92 1.622c-.465.028-1.84-.74-2.98-1.197.382.438.765.862 1.138 1.303-.813-.498-1.665-.838-1.49-.995-1.15-.32-.748.072-.234.582-2.224-1.035-2.487-1.43-4.365-1.863 1.738 1.066 2.53 1.395 3.421 1.703.87.345 1.836.689 3.758 2.038.512-.034 1.02-.052 1.53-.07m-8.09-3.899l1.023.137-1.438-.503z"/><path d="M11.431 163.959c-.012.143-.586-.077-.598.067 1.686.943 1.568.675.598-.067m19.078 13.266l2.088 1.343-1.25-1.031c-.046.133-.568-.16-.838-.312m15.095 8.855c-2.845-1.953-4.203-2.584-7.182-5.12-1.79-.795.283 1.129-.596.942 1.521 1.205 1.72.517 3.424 1.587.4.711 2.42 1.652 3.935 2.828-.108-.253-.014-.383.419-.237"/><path d="M54.675 193.864c1.332.863 2.832 1.47 3.821 2.253-.266.102-1.115-.326-1.9-.877.272.743 1.53.858 2.85 2.004-.103-.122-.594-.509-.127-.355 1.82 1.114 2.399 1.314 3.107 1.6.715.28 1.531.687 3.987 1.994.787.21 1.508.537 1.514.183 1.367.791 1.693 1.038 2.098 1.293.204.125.427.256.817.459.388.205.942.482 1.835.844-.087-.224-1.143-1.015-.973-1.402 1.21.553 2.151.924 2.935 1.14.39.116.737.21 1.054.29.32.063.61.114.887.16.554.093 1.044.182 1.611.26.566.082 1.193.243 2.038.398-.386-.005-.852.068-1.762-.132.366.66 2.882.259 4.767.31l-.177.491a31.102 31.102 0 0 0 3.361-.494c1.253-.245 2.537-.56 3.665-.747l-.419.383c2.165-.847 4.395-1.974 6.38-3.31 1.99-1.332 3.688-2.892 5.006-4.293l1.645-1.308c.81-1.062.96-1.368.813-1.25-.16.105-.61.646-1.158 1.156-1.09 1.038-2.32 2.137-1.26.493.514.096.952-.44 1.49-1.268.52-.85 1.2-1.93 2.205-3.037.563-.46.15.173-.25.799-.387.634-.817 1.217-.153.737.018-.408.23-.747.544-1.157.307-.417.757-.875 1.121-1.593.085.266.557-.428.99-1.054.44-.622.767-1.224.741-.658.343-.901.729-1.77.993-2.691l.43-1.356c.126-.456.229-.921.343-1.376.281-.374.58-.94.783-1.582.207-.64.44-1.31.542-1.905-.417 1.46-.544 1.2-.661.994-.127-.207-.295-.371-.9 1.174-.718 2.308-2.031 5.303-3.926 8.136-1.883 2.835-4.26 5.54-6.6 7.467-.038.456-.817 1.062-1.609 1.7-.415.295-.849.579-1.204.859-.354.285-.645.543-.797.763-.224-.086-.702.01-.923-.08-.806.543-1.193.73-1.271.824-.081.084.122.03.413-.06.58-.185 1.457-.63 1.104-.28-.712.505-1.472.756-1.998.91-.529.156-.873.126-.843-.002-2.598 1-.217.27-1.445 1.09-.663-.029-1.306-.046-1.938-.097-2.068.6-4.406.916-6.864.876-2.46-.034-5.03-.442-7.563-1.135-5.082-1.383-9.981-3.87-14.207-6.557l.452.74c-3.813-2.494-7.008-3.244-9.87-6.245l-1.333-.492c.73.26-.3-.955.838-.507-1.096-.584-2.09-1.473-3.21-2.106l1.749 1.466c-1.503-.626-2.815-1.817-3.072-2.378-3.011-1.64 1.233 1.756 1.66 2.464 2.181 1.067 3.07 1.9 3.92 2.762.848.862 1.653 1.763 3.69 2.883 2.547 1.342-.054-.485.214-.571"/><path d="M50.357 189.648a6.587 6.587 0 0 0-.633-.304 5.94 5.94 0 0 0 .633.304m60.512-10.382a35.31 35.31 0 0 0 .304-1.314c.01-.465-.096.256-.304 1.314m-65.684 7.05s-.002.001.006.011l.03.014zm-2.444-.515l1.031.756-.072-.282zm69.543-20.034l-.213.014c.082.108.159.15.213-.014m-15.997-32.72l.5.622a4.145 4.145 0 0 0-.5-.622"/><path d="M25.753 81.98c-2.21-.9-5.148-2.095-6.9-2.466l.242-.129c-1.201-.423-5.133-1.684-2.833-.31l.664.076c2.882.901 1.867 1.185 3.946 2.27 2.613 1.065 4.43 1.03 6.61 2.296 1.002.452.748.579.388.58 2.23 1.17 3.39 1.053 4.966 1.78-.06.876 1.702 1.67 3.83 2.597 2.12.936 4.606 2.024 5.962 3.402 2.108 1.065 4.752 2.78 7.471 4.096-.788-.247-.19.13.505.575.69.453 1.474.977 1.074.993.613-.177 2.382 1.073 4.112 2.3 1.726 1.235 3.423 2.432 3.979 2.099 3.158 2.604.197.006 3.877 2.963-.087.103-.727-.354-.995-.514 1.376 1.275 2.626 1.256 3.548 2.609 2.966 2.324.7.119 2.686 1.212 3.034 2.503 2.054 1.963 3.453 3.688.625-.218 2.284 1.443 3.936 2.461-.348-.33-2.337-2.125-.85-1.171 1.73 1.496 2.487 2.015 3.229 2.5.745.48 1.491.906 3.137 2.287 1.197 1.912-3.196-2.836-.722.043-2.21-1.588-3.757-2.934-5.163-3.508l9.165 7.744c1.523 1.588-1.011-.565.188.675 2.609 2.926 4.73 3.804 6.643 6.316l-.676-.262c1.636 1.096 4.538 5.22 6.902 7.977-.154-.468-.258-.773.124-.46-.33.218.499 1.171 1.638 2.474a46.98 46.98 0 0 1 1.752 2.223c.555.816 1.084 1.662 1.44 2.5.145-.26.732.321 1.438 1.208.36.437.716.972 1.066 1.51.344.54.701 1.074.959 1.573.233.767-.033.715-.159.766-1.439-3.36-2.177-2.818-3.852-5.122.728.942 1.562 2.28 2.302 3.624.389.662.745 1.332 1.085 1.939a23.2 23.2 0 0 0 .983 1.575c-.236-.188-.467-.377-.715-.555 1.328 2.981 2.092 2.225 2.967 5.601l-.393-.22c1.226 3.235 2.065 6.928 2.427 10.48.357 3.561.208 6.948.064 9.737.074.259.395-.275.684-.91.27-.635.544-1.37.646-1.435.049-1.711-.083-3.057-.284-4.282l-.14-.902-.187-.88c-.132-.585-.21-1.18-.368-1.801l.467-.02c-.2-.271-.451-1.16-.655-1.76-.239-.595-.411-.906-.372-.058-.643-1.97.138-1.629-.715-3.87.517.064.92 1.439 1.321 1.373l-.75-1.983c.17.299.145-.02.089-.335-.054-.314-.11-.634.077-.352-.833-1.791-1.253-3.065-1.65-4.386-.217-.652-.426-1.314-.694-2.04a23.128 23.128 0 0 0-1.134-2.37l.862 2.063c-.256.095-.761-1.075-1.241-1.91a6.039 6.039 0 0 0-.407-1.515c-.103-.261-.225-.546-.372-.885l-.556-1.19c-.523-.724-1.015-1.235-1.546-1.81-.525-.575-1.048-1.238-1.708-2.228.352.075-.12-.8-.694-1.753-.588-.943-1.248-1.983-1.206-2.29-.358-.057-1.082-.957-1.772-1.855-.707-.883-1.39-1.758-1.607-1.796-.87-.935-1.953-2.296-1.734-2.468.128.133.41.392.68.684l-.796-.992c.122.055.125-.009.23.1-.722-.876-1.02-.63-1.792-1.908.11-.082.634.522 1.1.978a17.96 17.96 0 0 0-1.469-1.568c-.501-.461-1-.88-1.478-1.296-.949-.84-1.86-1.615-2.553-2.69-.516-.198-2.992-2.641-2.843-1.724-.533-.79.024-.847-1.857-2.557-1.383-.656-1.946-2.071-3.592-3.132 2.228 1.358.107-.103 2.071 1.077-1.146-1.32-3.478-2.572-5.705-4.584-.167-.28-.07-.378-.24-.66-.968-.594-2.186-1.136-2.797-2.107l-.099.338c-1.479-1.418-3.78-3.107-5.324-4.708-.808-.352-1.61-.709-2.425-1.043-2.366-2.584-6.513-4.76-9.084-5.784-1.025-.733-2.544-1.847-2.464-1.96.27.12.738.31 1.268.557-.77-.515-1.58-1.155-2.343-1.684-.768-.521-1.491-.927-2.07-.99-1.685-.884-.992-1.037-2.152-1.856-1.823-.706-4.189-2.268-6.316-3.593-2.127-1.322-4.008-2.41-4.786-2.198 1.378.75 3.864 2.411 6.477 3.879-.753-.282-.325.217-1.299-.318-1.304-.734-2.245-1.37-3.202-1.988a24.493 24.493 0 0 0-3.283-1.856l.648-.45c-4.212-3.107-9.158-3.72-12.359-6.35"/><path d="M59.173 101.107l-1.62-1.516.023.381c.587.335 1.158.715 1.598 1.134m-1.598-1.134c-.388-.223-.771-.42-1.14-.587.399.266.785.515 1.15.686zM17.772 78.517a14.995 14.995 0 0 0-2.18-.926c.542.317 1.695.826 2.18.926m-2.417-.788l.963.52.179-.014zm-57.03-27.534c-.994-.644-1.918-1.373-2.885-2.06-.336-.548-3.323-3.199-2.148-2.548-.459-.28-.984-.715-1.502-1.183-.506-.479-.995-1-1.413-1.424-.833-.851-1.368-1.338-1.06-.466 3.582 3.748 8.008 8.073 13.029 12.017 5.003 3.958 10.601 7.512 16.057 10.009l-1.828-.662c2.855 1.28 4.723 2.293 6.465 3.257.872.479 1.752.85 2.707 1.212.48.176.982.34 1.52.486.54.152 1.115.283 1.757.36l-.85.313c1.308.583 2.667.867 4.01 1.206.669.182 1.35.332 2.024.541a10.11 10.11 0 0 1 2.002.865l-.2-.32c.749.241 1.01.441 1.77.69l-.27-.201c2.035.387 3.238.77 5.11 1.571.073.222-.925-.218-1.54-.365.825.47 2.466.58 3.956 1.109 1.116.561-.106.252-.293.273 4.557 1.324 6.318 2.713 9.76 3.143.36-.025-1.023-.751.605-.158-2.8-1.45-5.298-2.051-8.065-2.794l.744.27c-2.42.04-1.545-.784-5.113-1.603 1.025-.037 2.516.5 3.178.524-3.762-2.03-5.869-1.409-8.267-3.059l.3.07c-.565-.27-1.671-.46-2.601-.678.262.201 1.14.544 1.719.818-.94-.22-1.524-.012-1.884.041-.457-.349-.813-.415-1.256-.485-.442-.065-.97-.136-1.743-.54-.454-.546 1.455.212 2.136.203l-1.023-.205-1.01-.25c-1.786-.648-1.616-1.02-2.419-1.525-1.599-.318.806.507-.544.4-.216-.142-.535-.303-.93-.502a32.923 32.923 0 0 0-1.381-.695 73.968 73.968 0 0 0-1.73-.796c-.62-.281-1.287-.551-1.943-.883-1.321-.644-2.726-1.266-4.018-1.874a87.051 87.051 0 0 0-3.42-1.629c1.275.64.626-.088 2.111.789-.505-.37-2.545-1.269-2.693-1.05a41.222 41.222 0 0 1-4.036-2.345 61.833 61.833 0 0 1-3.6-2.739c.152.23.323.44.483.66-1.067-.434-2.15-1.374-3.414-2.417-.637-.514-1.27-1.124-1.971-1.712-.693-.602-1.46-1.178-2.257-1.774l.058.06c-.503-.396-1.068-.647-1.722-1.005-.646-.366-1.413-.807-2.218-1.672.689.22 1.626 1.063 1.746.732m57.55 145.107c-.76-.397-1.613-.842-2.567-1.197-.96-.344-1.972-.732-3.04-1.03l-1.62-.427c-.544-.141-1.085-.296-1.64-.389l-1.633-.326-.801-.166c-.266-.048-.532-.079-.793-.12-.965-.1-1.705-.162-2.273-.197a9.85 9.85 0 0 0-1.26.05c-.574.062-.687.163-.79.26-.202.224-.355.266-3.951.392l1.218-.872-1.41.033c-.48.013-.969.087-1.467.128-.995.098-2.029.174-3.06.395-1.038.19-2.102.35-3.136.666-1.04.285-2.1.535-3.098.94-4.064 1.426-7.694 3.515-10.143 5.416-.53.186-1.71.718-.13-.335-1.06.602-1.651 1.105-2.07 1.5-.416.399-.647.713-.922 1.048-.28.327-.597.687-1.174 1.191-.29.25-.649.53-1.103.858l-.759.528-.894.648c1.094-1.04 1.585-1.442 1.63-1.59.053-.137-.296.035-.76.284-.917.51-2.24 1.413-1.749.689l.715-.635c-.803.65-1.684 1.338-2.536 2.09-.838.768-1.712 1.522-2.506 2.299-.787.784-1.558 1.518-2.227 2.202-.659.695-1.25 1.303-1.734 1.778.037.116.533-.186.701-.193.085-.002.087.068-.09.299-.174.234-.538.619-1.138 1.294 1.021-1.044.804-.44.874-.194 1.227-1.403 2.2-2.466 3.118-3.32a81.197 81.197 0 0 0 2.432-2.457c1.77-1.13-1.007.977.761-.153.353-.352.694-.721 1.06-1.06l1.098-1.023c1.771-1.29-1.611 1.617 1.123-.432.097-.197.69-.72 1.536-1.392.423-.333.904-.715 1.429-1.087.534-.36 1.102-.73 1.673-1.084l-.598.5c1.64-1.245 4.26-2.509 3.154-2.442.779-.272 1.551-.54 2.347-.757l-.522-.093c2.52-1.27 4.368-1.85 6.38-2.471a60.52 60.52 0 0 0 1.572-.443c.542-.165 1.107-.35 1.734-.484a54.39 54.39 0 0 0 2.003-.539c.72-.198 1.518-.335 2.383-.553-1.702.206-.196-.239.705-.465-1.488.17-2.401.347-3.252.66l-1.32.503c-.24.087-.496.176-.777.267-.28.089-.588.178-.916.31-.123-.04.059-.197.356-.385.302-.167.72-.364 1.05-.534.66-.34.968-.572-.75-.218 3.745-.777 7.12-1.42 8.777-.785a81.092 81.092 0 0 0 2.96-.09l2.449.032c.794-.017 1.581.098 2.464.193.438.056.903.107 1.397.19a64.803 64.803 0 0 1 1.576.364l-.159.089c.468-.163 1.399.031 2.603.447.606.195 1.291.4 2.038.599.737.231 1.54.443 2.408.586l-2.307-.891c.173-.173 1.315.2 2.927.696-.208.024-.201.006.271.302.298-.085 1.697.334 3.097.82 1.377.541 2.769 1.114 3.093 1.212-1.006-.5-2.169-.964-3.387-1.408l-1.876-.597a34.93 34.93 0 0 0-1.887-.583c1.336.2 1.06-.208 3.111.66m17.977 10.964c2.363 1.796-.824-.216 1.307 1.56 2.582 1.571-2.463-2.49.149-1.067.664.636 1.65 1.312 2.592 1.923.927.63 1.815 1.192 2.297 1.562-1.197-.644-.894.238-.54.645.498.289 1.205.89 1.97 1.578l2.35 2.084c-1.742-1.654-.935-1.051-.08-.409.847.648 1.745 1.331.198-.2.217-.013 1.229.668 2.345 1.524 1.111.859 2.306 1.916 2.922 2.602-.243.077-1.337-.933-2.266-1.73-1.015-.331 2.162 2.17 2.424 2.91 1.9 1.3 5.563 4.421 8.39 6.844 2.832 2.417 4.887 4.074 3.695 2.304-1.024-1.21-2.147-1.975-3.42-3.107 3.353 3.402-.306.376-.718.227-1.374-1.5-4.16-3.64-3.344-3.342l2.61 1.93c-3.739-3.577-8.262-7.723-13.174-11.723-4.912-3.994-10.172-7.895-15.301-10.96.74.441 1.453.921 2.17 1.397.713.481 1.444.937 2.142 1.438-.312-.076-.984-.438-1.781-.9-.802-.456-1.707-1.047-2.553-1.475.614.598 1.192 1.246 1.78 1.869-1.197-.864-2.452-1.517-2.232-1.633-1.674-.72-1.048-.154-.242.582a80.167 80.167 0 0 1-2.013-1.192c-.546-.328-1.006-.58-1.44-.826-.872-.479-1.654-.907-3.052-1.373 1.35.801 2.285 1.42 3.083 1.845.396.217.754.396 1.09.567l.97.503c.645.33 1.32.667 2.197 1.195.858.557 1.945 1.262 3.369 2.381zm-11.956-7.046c.502.131.992.293 1.483.452-.7-.35-1.424-.656-2.142-.962l.659.511zm2.77-.013c.003.155-.851-.255-.847-.098 2.558 1.537 2.348 1.205.847.098"/><path d="M52.428 221.889l2.901 2.51-1.763-1.773c-.046.14-.767-.438-1.138-.737m20.638 17.4c-3.882-3.667-5.708-5.05-9.849-9.447-2.418-1.759.476 1.493-.692.876 2.104 2.133 2.3 1.39 4.628 3.453.587 1.04 3.31 3.094 5.384 5.21-.161-.354-.05-.469.53-.093"/><path d="M85.502 252.875c.898.83 1.853 1.604 2.754 2.34.899.74 1.733 1.454 2.415 2.145-.352-.014-1.504-.913-2.562-1.944.192.5.71.938 1.399 1.499.698.552 1.567 1.226 2.46 2.216-.14-.191-.806-.881-.177-.474 2.472 2.17 3.244 2.688 4.21 3.356s2.077 1.54 5.425 4.208c1.078.618 2.067 1.334 2.085.947 3.778 3.065 1.69 1.766 6.51 5.12-.05-.139-.437-.542-.778-.951-.334-.42-.617-.853-.493-1.012 3.358 2.374 5.272 3.297 6.85 3.993 1.587.695 2.84 1.191 5.258 2.25-.578-.14-1.265-.307-2.576-.875.427.796 4.18 1.524 7.025 2.186l-.384.408a36.329 36.329 0 0 0 5.18.529c.242.015.489.027.735.043l.742-.016 1.475-.008c.487.024.963-.038 1.431-.055a28.677 28.677 0 0 1 1.36-.038l-.757.324c3.518-.564 7.2-1.786 10.43-3.553l1.209-.65c.387-.238.76-.495 1.135-.737.74-.503 1.506-.946 2.16-1.5l1.955-1.553 1.689-1.595c.882-.617 1.67-1.335 2.489-2.032 1.376-1.524 1.61-1.996 1.407-1.8-.115.09-.334.351-.663.661l-1.143 1.098-1.224 1.159c-.392.339-.756.6-.99.756-.475.31-.477.145.494-.974.626.007 1.305-.81 2.253-1.994.492-.575.962-1.321 1.562-2.083.589-.771 1.294-1.571 2.038-2.45.796-.758.13.2-.516 1.14-.697.901-1.373 1.789-.43.995.336-1.047 1.424-2.022 2.81-4.054.076.71 2.95-4.227 2.502-2.69a28.347 28.347 0 0 0 .997-1.944l.951-1.96c.33-.643.597-1.322.882-1.988l.841-1.998c.452-.549.879-1.429 1.34-2.353a54.43 54.43 0 0 0 .659-1.419c.21-.473.369-.953.533-1.385-.221.54-.383.925-.517 1.189-.141.259-.237.403-.305.472-.135.137-.153-.028-.185-.178-.064-.302-.183-.542-1.371 1.76-1.536 3.44-3.939 7.902-7.022 12.2-3.048 4.313-6.808 8.432-10.571 11.248-.112.274-.468.642-.955 1.063-.471.439-1.129.85-1.796 1.268-1.301.899-2.784 1.577-3.341 2.16-.141-.035-.385-.003-.63.024-.252.01-.504.02-.647-.025-1.377.6-1.97.915-2.128.985-.153.085.173.052.614-.097.888-.27 2.33-.757 1.688-.373-.612.276-1.205.515-1.745.713-.543.192-1.06.267-1.475.35-.836.146-1.322.146-1.233.007-4.223.88-.42.265-2.538 1.037-.978-.078-1.945-.22-2.883-.337-3.338.252-7-.139-10.685-1.15-3.689-1.001-7.396-2.592-10.972-4.537-7.17-3.898-13.811-9.15-19.574-14.34l.627 1.082c-5.195-4.771-9.439-7.182-13.385-12.115l-1.785-1.213c.975.656-.458-1.29 1.064-.216-1.476-1.222-2.846-2.746-4.36-4.034l2.4 2.58c-2.015-1.452-3.82-3.495-4.204-4.288-4.07-3.362 1.757 2.684 2.36 3.738 2.932 2.294 4.157 3.71 5.324 5.14 1.169 1.43 2.27 2.882 5.013 5.171 3.427 2.803-.092-.597.26-.572"/><path d="M79.564 245.802c-.349-.286-.63-.502-.854-.662.29.243.57.462.853.662m90.896-1.638c.21-.512.448-1.118.758-1.932.167-.688-.187.377-.758 1.932m-97.922-4.782s-.002.001.008.016c.009.004.022.015.042.032zm-3.238-1.737l1.41 1.382-.117-.374zm106.878-13.552l-.21-.042c.045.185.105.271.21.042m-10.888-54.979l.515 1.12a9.693 9.693 0 0 0-.515-1.12"/><path d="M71.791 73.485c-3.244-1.749-7.571-4.051-10.149-4.982l.335-.066c-1.765-.862-7.616-3.385-4.125-1.205l.97.281c2.139.919 2.835 1.413 3.403 1.872.565.463.991.914 2.538 1.858 1.939 1.002 3.54 1.666 5.07 2.338 1.541.654 2.98 1.367 4.594 2.45 1.47.853 1.12.918.613.783a28.813 28.813 0 0 0 3.957 2.169c1.092.524 2.067.953 3.21 1.652.008.967 2.55 2.529 5.591 4.423 1.515.95 3.166 1.973 4.665 3.055 1.512 1.062 2.882 2.176 3.87 3.254 2.994 2.088 6.723 5.224 10.488 7.963-2.153-1.28 3.33 2.837 2.248 2.539.795.082 3.277 2.323 5.644 4.594 1.2 1.118 2.361 2.251 3.322 3.077.96.827 1.722 1.341 2.074 1.274 2.15 2.316 2.209 2.346 2.36 2.456.15.112.412.288 2.875 2.975-.107.082-.963-.78-1.322-1.106.927 1.11 1.801 1.801 2.598 2.484.788.69 1.508 1.364 2.136 2.412 3.921 4.309.909.491 3.505 2.815 2.008 2.28 2.644 3.174 3.065 3.807.407.64.567 1.048 1.462 2.489.393.021 1.123.764 2.024 1.76.896 1 1.93 2.278 2.987 3.332-.446-.589-2.98-3.862-1.096-1.899 2.218 2.75 3.128 3.832 4.071 4.816.946.985 1.834 1.946 3.883 4.556.716 1.552-.227.195-1.033-.877-.796-1.082-1.393-1.925.15.549-2.724-3.188-4.667-5.691-6.43-7.145a440.879 440.879 0 0 1 11.279 14.722c.914 1.436.598 1.124.26.72-.353-.397-.75-.871-.035.253a50.587 50.587 0 0 0 2.204 3.444 93.496 93.496 0 0 0 1.973 2.834 47.226 47.226 0 0 1 1.809 2.673c.573.918 1.151 1.871 1.657 2.977l-.761-.727c.883 1.196 2.175 3.543 3.464 6.265 1.315 2.71 2.629 5.782 3.836 8.323-.135-.725-.222-1.198.172-.56-.2.06-.07.525.237 1.282.295.76.777 1.81 1.33 3.025.557 1.212 1.108 2.62 1.654 4.043a33.946 33.946 0 0 1 1.231 4.282c.192-.29.718.848 1.326 2.477l.466 1.298c.143.456.28.93.417 1.405.27.95.539 1.9.739 2.736.099 1.22-.16 1.01-.295 1.02-.926-5.548-1.779-5.162-3.231-9.32.357.851.644 1.88.979 2.965.16.544.33 1.103.481 1.675l.426 1.731.426 1.71c.14.558.244 1.11.37 1.635a45.47 45.47 0 0 0 .724 2.772c-.192-.393-.423-.777-.633-1.163.8 5.003 1.7 4.259 1.838 9.618l-.33-.502c.492 5.334.326 11.188-.397 16.684-.7 5.507-1.957 10.636-3.029 14.807-.005.394.482-.387 1.004-1.297.476-.925.971-1.984 1.095-2.069.15-.632.302-1.23.414-1.807l.274-1.663c.164-1.062.331-2.032.392-2.98l.244-2.76c.052-.916.089-1.842.158-2.824l.456.108c-.053-.23-.068-.7-.069-1.232l-.07-1.617c-.05-.973-.121-1.502-.34-.211-.001-1.6.147-2.195.248-2.857.11-.659.236-1.384.126-3.22.499.3.487 2.502.895 2.552-.068-1.082-.076-2.159-.206-3.233.214 1.022.118-1.933.33-.95a49.612 49.612 0 0 1-.21-2.084c-.08-.644-.14-1.248-.185-1.825-.091-1.154-.113-2.203-.204-3.253-.081-1.051-.112-2.12-.262-3.295-.165-1.172-.333-2.474-.687-3.981.198 1.128.314 2.27.476 3.404-.285.015-.526-1.934-.885-3.374.026-1.71-.149-2.705-.76-5.82-.406-1.306-.869-2.281-1.333-3.376a32.78 32.78 0 0 1-.699-1.786 38.3 38.3 0 0 1-.802-2.267c.181.147.172-.148.059-.687a20.239 20.239 0 0 0-.595-2.134c-.523-1.633-1.115-3.438-1.058-3.828-.392-.274-1.069-1.922-1.76-3.526-.712-1.594-1.386-3.168-1.624-3.343-.935-1.731-2.015-4.194-1.784-4.29.148.243.437.753.72 1.297-.271-.596-.543-1.19-.839-1.772.137.14.144.057.257.259-.781-1.566-1.114-1.414-1.924-3.55.137-.053.688 1.051 1.189 1.922-.995-2.122-2.183-3.808-3.227-5.45-.544-.81-1.074-1.595-1.558-2.408a29.65 29.65 0 0 1-1.34-2.531c-.304-.267-1.163-1.545-1.926-2.594-.79-1.034-1.48-1.84-1.395-1.208-.313-.658-.303-.93-.489-1.444-.184-.516-.564-1.275-1.708-2.87-1.629-1.613-2.358-3.697-4.344-5.943 2.705 2.93.118-.07 2.514 2.484-.706-1.14-1.74-2.448-2.995-3.894a187.352 187.352 0 0 1-1.956-2.327 56.607 56.607 0 0 1-2.098-2.607c-.211-.443-.093-.514-.306-.962-1.224-1.24-2.76-2.547-3.55-4.077l-.112.37c-1.91-2.517-4.874-5.782-6.929-8.507-1.053-.83-2.088-1.675-3.16-2.477-3.17-4.318-8.705-8.924-12.184-11.327-1.4-1.353-3.503-3.364-3.4-3.466.365.265.999.708 1.716 1.245-2.09-1.95-4.512-4.5-6.069-5.171-2.346-1.77-1.415-1.655-3.038-3.13-1.264-.805-2.728-1.918-4.248-3.142-1.542-1.194-3.11-2.539-4.637-3.728-3.017-2.423-5.735-4.396-6.777-4.483.98.714 2.369 1.796 3.979 3.04 1.588 1.274 3.422 2.68 5.25 4.104-1.047-.649-.424.114-1.79-.926-3.713-2.759-5.38-4.524-9.279-7.052l.854-.26a46.07 46.07 0 0 0-2.325-1.84 56.25 56.25 0 0 0-2.387-1.626c-1.59-1.045-3.209-1.951-4.765-2.851s-3.091-1.726-4.513-2.624c-1.434-.878-2.783-1.78-3.989-2.806"/><path d="M119.256 109.303l-2.23-2.57.054.464c.794.676 1.57 1.399 2.176 2.106m-2.177-2.105c-.524-.45-1.058-.846-1.554-1.218.543.503 1.087.96 1.574 1.339zm-57.104-40.13c-.648-.363-1.924-1.068-3.266-1.66.82.51 2.548 1.414 3.266 1.66m-3.592-1.58l1.454.858.256.039zm-86.19-46.013l-4.068-3.622c-.27-.404-1.451-1.73-2.379-2.794-.928-1.06-1.596-1.856-.794-1.235-2.553-2.067-6.537-7.917-5.49-5.396 5.052 6.185 11.439 13.271 18.812 19.786C-16.38 32.746-8.042 38.66.151 42.953l-2.7-1.26c4.246 2.276 7.133 3.833 9.793 5.36 1.348.724 2.69 1.333 4.137 1.949 1.454.599 3.013 1.216 4.93 1.626l-1.191.164c2.016.894 4.059 1.476 6.091 2.114 2.065.556 4.134 1.13 6.212 2.167l-.345-.373c1.15.384 1.574.65 2.73 1.02l-.426-.25c3.092.724 4.944 1.39 7.829 2.621.137.25-1.399-.44-2.34-.7 1.296.64 3.741 1.134 6.016 2.024 1.714.871-.125.244-.398.222 3.448 1.227 5.858 2.366 8.037 3.352 1.086.504 2.12.955 3.2 1.374 1.07.437 2.188.833 3.455 1.194.522.075-1.582-1.098.862 0-4.24-2.385-7.972-3.688-12.131-5.177l1.125.479c-1.772-.301-2.378-.561-3.194-1.02-.41-.225-.877-.49-1.576-.807-.705-.304-1.646-.652-2.993-1.06.756.097 1.707.363 2.591.625.886.262 1.69.554 2.18.646a30.764 30.764 0 0 0-3.9-1.743c-1.165-.445-2.216-.758-3.205-1.042-1.965-.6-3.68-1.053-5.605-2.113l.462.12c-.896-.37-2.567-.778-3.99-1.169.425.26 1.785.777 2.689 1.167-1.435-.398-2.272-.281-2.798-.289-1.464-.905-2.18-.512-4.628-1.59-.375-.349.16-.189.937.007.776.199 1.775.494 2.277.563-1.031-.274-2.079-.507-3.102-.817-2.736-1.062-2.547-1.426-3.817-2.136-2.407-.669 1.273.711-.73.32-.684-.394-1.994-.957-3.596-1.782l-2.652-1.273-1.466-.683a22.276 22.276 0 0 1-1.51-.738l-6.097-3.127a204.549 204.549 0 0 0-5.131-2.8c1.919 1.079.865.076 3.126 1.483-.78-.566-3.84-2.139-3.991-1.952a82.314 82.314 0 0 1-2.982-1.845c-.507-.334-1.021-.673-1.54-1.012-.513-.345-1.031-.687-1.517-1.072a163.32 163.32 0 0 1-2.876-2.24c-.917-.742-1.808-1.426-2.558-2.14.257.317.503.652.771.958-1.503-.894-3.154-2.354-5.053-4.02l-2.93-2.766c-1.04-.958-2.162-1.926-3.295-2.963l.088.095c-.732-.665-1.515-1.171-2.435-1.84-.455-.337-.958-.703-1.481-1.17a23.64 23.64 0 0 1-1.674-1.712c.935.504 2.254 1.937 2.357 1.553m56.488 210.198a44.96 44.96 0 0 0-1.554-.66 50.204 50.204 0 0 0-1.747-.568c-.609-.181-1.23-.39-1.88-.544l-1.99-.44-1.016-.217c-.342-.061-.69-.105-1.035-.158l-2.074-.306c-.69-.108-1.384-.132-2.063-.204-.681-.055-1.35-.137-2.006-.179-1.207 0-2.13.014-2.838.039-.71.006-1.203.119-1.554.168-.702.128-.832.241-.948.349-.227.248-.411.295-4.872.858l1.437-1.017-1.742.204-1.8.323-1.864.337-1.888.464-1.922.48-1.908.608-1.918.617-1.87.737-1.85.74c-.605.262-1.192.555-1.778.83-1.166.567-2.32 1.09-3.37 1.712-1.06.603-2.088 1.169-3.026 1.76a86.463 86.463 0 0 0-2.58 1.751c-.325.127-.854.355-1.041.413-.189.056-.075-.122.923-.754-.662.37-1.172.72-1.588 1.029-.418.306-.743.568-1.011.803-.536.472-.843.832-1.207 1.218-.366.386-.763.833-1.505 1.43-.737.605-1.83 1.345-3.45 2.528.708-.619 1.198-1.076 1.532-1.381.34-.298.506-.468.546-.545.082-.152-.35.066-.917.393-1.105.687-2.765 1.797-2.101.96l.906-.771a79.657 79.657 0 0 0-6.317 5.416c-2.025 1.881-3.759 3.74-4.965 4.92.025.123.613-.28.808-.303.19-.026-.042.296-1.56 1.958 1.276-1.3.954-.595 1.003-.325 3.057-3.52 5.043-5.094 6.986-7.144 2.179-1.446-1.28 1.188.894-.256l1.348-1.298c.45-.433.93-.83 1.394-1.248 2.214-1.603-2.072 1.945 1.356-.598.072-.108.291-.328.622-.63.332-.3.796-.654 1.328-1.066a82.907 82.907 0 0 1 1.8-1.338c.653-.468 1.379-.905 2.09-1.351l-.765.598a72.568 72.568 0 0 1 1.686-1.124l.828-.542.754-.455c.91-.564 1.385-.932.729-.83.962-.355 1.891-.756 2.868-1.063l-.616-.046c1.58-.766 2.917-1.41 4.193-1.922l3.719-1.392c1.27-.392 2.575-.863 4.104-1.383 1.548-.453 3.276-1.105 5.442-1.689-2.117.424-.252-.216.859-.557-1.846.36-2.975.641-4.016 1.108-.525.217-1.044.43-1.639.674l-.964.368-1.129.463c-.3-.045.914-.747 1.743-1.144.816-.426 1.194-.697-.92-.13 4.62-1.227 8.738-2.4 10.859-1.944 1.408-.19 2.602-.306 3.685-.464 1.087-.103 2.07-.165 3.055-.25 1.972-.095 3.978-.126 6.851.265l-.184.104c.562-.246 1.725.004 3.28.301.782.125 1.644.363 2.589.552a29.62 29.62 0 0 0 1.473.26c.505.097 1.024.201 1.561.278l-1.466-.468-1.49-.383c.095-.09.506-.06 1.153.046.651.09 1.51.359 2.53.61-.248.017-.247.017.378.301.364-.133 2.112.346 3.882.869.879.279 1.745.613 2.453.86l1.445.512c-2.555-1.15-5.859-2.108-9.035-2.81.826.114 1.144.06 1.584.078.444.005 1.002.123 2.303.605m22.683 13.052c2.906 2.283-.987-.332 1.666 1.874 3.155 2.042-3.11-3.027.063-1.136.419.387.932.796 1.484 1.206.547.418 1.126.847 1.696 1.25 1.144.802 2.213 1.551 2.796 2.035-1.428-.89-1.003.127-.56.628 1.193.787 3.464 3.048 5.275 4.68-2.136-2.093-1.16-1.304-.13-.463 1.027.845 2.112 1.736.209-.19.246.02 1.466.92 2.808 2.045 1.332 1.131 2.799 2.47 3.547 3.341-.268.044-1.592-1.253-2.727-2.27-1.18-.53 2.653 2.734 3.008 3.605 4.577 3.444 17.57 16.31 14.517 12.013-1.276-1.5-2.625-2.505-4.166-3.96 4.115 4.286-.31.38-.786.146-1.7-1.873-5.037-4.69-4.09-4.232l3.125 2.549c-4.552-4.555-10.028-9.876-15.987-15.04a160.392 160.392 0 0 0-9.248-7.476c-1.571-1.197-3.188-2.308-4.77-3.413-1.618-1.058-3.2-2.114-4.807-3.053 1.834 1.111 3.609 2.313 5.37 3.533-.372-.123-1.195-.594-2.179-1.185l-1.554-.95-1.61-.906a60.635 60.635 0 0 1 2.305 2.19l-1.102-.752-.96-.598c-.545-.348-.87-.586-.746-.637-2.044-.957-1.245-.281-.218.597l-1.377-.816-1.142-.64-1.795-1.023c-1.106-.556-2.096-1.058-3.819-1.656.866.451 1.574.905 2.22 1.249.636.36 1.203.631 1.69.914.983.546 1.76.923 2.57 1.317 1.587.842 3.346 1.713 6.92 4.46zm-14.888-8.74l1.823.589c-.896-.387-1.765-.829-2.679-1.166.286.192.578.368.855.577m3.303.183c.024.162-1.054-.321-1.027-.157l1.061.568.733.411c.392.213.595.302.64.29.088-.02-.45-.457-1.407-1.112"/><path d="M72.033 262.72l3.51 3.245-2.154-2.251c-.04.15-.907-.607-1.356-.995m25.286 22.102c-4.933-4.431-7.168-6.193-12.329-11.646-2.92-2.287.702 1.732-.682.887 2.612 2.67 2.75 1.858 5.624 4.447.795 1.23 4.126 3.843 6.805 6.368-.236-.408-.128-.527.582-.056"/><path d="M114.379 300.082a51.159 51.159 0 0 0 3.894 2.292c1.263.72 2.495 1.327 3.524 1.969-.391.016-2.078-.721-3.626-1.739.396.509 1.123.951 2.136 1.425.501.245 1.063.517 1.673.842.607.334 1.296.657 2.01 1.094-.24-.172-1.288-.76-.399-.456 1.837.937 3.087 1.389 4.01 1.747.919.368 1.574.498 2.275.712.709.202 1.478.456 2.737.774a55.91 55.91 0 0 0 5.613 1.317c.778.04 1.545.112 2.089.13.546 0 .87-.076.754-.242 2.998.444 3.763.438 4.671.542.455.04.951.106 1.79.072l1.561-.041c.316-.017.668-.007 1.048-.05l1.26-.141c-.154-.072-.846-.117-1.49-.197-.65-.128-1.25-.287-1.243-.492 1.282.001 2.39-.19 3.383-.301.997-.096 1.847-.313 2.61-.478.76-.185 1.443-.303 2.038-.512l1.646-.55c.505-.182.995-.324 1.47-.52l1.46-.594c.513-.201 1.059-.407 1.675-.63a76.39 76.39 0 0 1 2.022-.845c-.325.176-.68.368-1.147.623-.236.125-.502.262-.81.412-.317.131-.678.271-1.096.424.25.05.7-.05 1.275-.274.561-.25 1.253-.613 2.015-1.025l1.19-.649 1.214-.754a62.165 62.165 0 0 1 2.46-1.435c-.016.203-.032.41-.054.605.71-.462 1.528-1.041 2.427-1.657.445-.316.926-.617 1.386-.973l1.418-1.076c1.96-1.405 3.877-3.028 5.652-4.21l-.591.791c.83-.697 1.597-1.481 2.423-2.229l2.484-2.281 1.26-1.146 1.222-1.193 2.44-2.366 1.21-1.165c.395-.392.768-.802 1.149-1.198l2.224-2.343c1.477-1.504 2.743-3.058 3.92-4.459.931-.932 1.913-1.826 2.79-2.815 3-4.08 1.401-2.134-.435.04a24.528 24.528 0 0 1-1.4 1.547c-.445.462-.833.852-1.094 1.083-.522.46-.53.282.543-1.219.353-.064.73-.353 1.16-.814.416-.473.862-1.135 1.394-1.914.529-.78 1.133-1.682 1.844-2.655l.553-.745.56-.795a35.22 35.22 0 0 1 1.258-1.643c1.87-1.992-3.24 4.825-1.152 2.634.362-1.309 1.686-2.564 3.327-5.14.005.799 3.498-5.368 2.89-3.51 1.644-3.22 3.172-6.485 4.464-9.838 1.051-1.415 2.158-4.35 3.017-6.481-2.268 5.34.018-1.697-2.69 4.182-1.886 4.306-4.745 9.927-8.4 15.416-3.677 5.473-8.085 10.785-12.123 15.067-.465 1.335-5.213 5.483-6.301 7.066-.33.053-1.085.548-1.422.606-1.354 1.332-1.927 1.946-2.073 2.109-.142.168.206-.05.652-.424.906-.735 2.342-1.964 1.747-1.245-.591.59-1.17 1.132-1.706 1.608-.545.467-1.063.847-1.491 1.156-.86.615-1.401.898-1.357.716-4.112 3.567-.345.519-2.225 2.597-.51.317-1.041.607-1.575.89l-1.588.855c-3.279 2.662-6.975 5.389-11.172 7.672-4.179 2.298-8.831 4.232-13.79 5.269a41.704 41.704 0 0 1-15.183.275c-5.01-.874-9.763-2.646-14.049-4.832l1.15.996a212.466 212.466 0 0 1-5.462-2.782l-2.468-1.334-2.336-1.36c-3.04-1.851-5.868-3.838-8.64-6.608l-2.276-1.409c1.244.761-.783-1.437 1.165-.198a39.341 39.341 0 0 1-1.435-1.103l-1.406-1.2c-.943-.805-1.88-1.634-2.841-2.409a161.44 161.44 0 0 0 3.174 3.015 28.56 28.56 0 0 1-1.864-1.38 30.71 30.71 0 0 1-1.634-1.45c-.988-.931-1.716-1.771-1.993-2.233-5.12-4.107 2.391 3.156 3.296 4.346.941.68 1.749 1.293 2.457 1.855a54.76 54.76 0 0 1 1.884 1.524 67.652 67.652 0 0 1 2.771 2.533 43.123 43.123 0 0 0 2.742 2.488c.537.46 1.15.932 1.87 1.434.723.496 1.514 1.078 2.488 1.637 4.798 2.8-.29-.64.123-.63"/><path d="M105.848 292.417a22.94 22.94 0 0 0-1.101-.762c.38.279.74.53 1.101.762m112.513-47.05c.257-.637.506-1.41.858-2.434.192-.86-.194.485-.858 2.434m-121.623 39.51s-.002.002.011.019c.011.005.028.02.053.04zm-3.917-2.249l1.794 1.688-.19-.427zm131.954-62.405l-.21-.04c.042.225.1.328.21.04m-17.714-67.218l.781 1.32a15 15 0 0 0-.781-1.319"/><path d="M4.18 180.948c-1.024 4.469-2.267 10.44-2.624 13.82l-.14-.367c-.438 2.403-1.619 10.248-.249 5.312l.06-1.25c.401-2.87.746-3.875 1.07-4.718.34-.84.673-1.52 1.253-3.703.574-2.66.831-4.803 1.164-6.853a69.73 69.73 0 0 1 .533-3.072c.217-1.038.495-2.106.852-3.262.523-2.05.648-1.675.643-1.03.645-2.338 1.005-3.989 1.253-5.476.25-1.487.459-2.789.905-4.396.485-.205.97-1.206 1.47-2.696.515-1.486 1.07-3.454 1.653-5.607.607-2.145 1.267-4.467 1.985-6.656.744-2.178 1.52-4.233 2.376-5.83 1.438-4.312 3.695-9.946 5.61-15.415-.39 1.504.129.244.738-1.223.632-1.457 1.36-3.12 1.325-2.448-.059-.47.342-1.651.965-3.183.644-1.524 1.522-3.39 2.382-5.242 1.76-3.686 3.5-7.294 3.202-8.009 3.738-6.916.019-.348 4.347-8.326.11.08-.573 1.43-.823 1.98 1.82-3.097 2.076-5.137 3.94-7.513 3.555-6.327.3-1.227 2.1-5.166 1.9-3.272 2.685-4.387 3.243-5.144.573-.748.958-1.118 2.257-2.773-.068-.437.54-1.581 1.37-3.032.827-1.453 1.945-3.169 2.805-4.814-.517.762-3.37 5.051-1.744 2.085 2.376-3.7 3.294-5.2 4.126-6.676.42-.735.81-1.47 1.4-2.438a119.62 119.62 0 0 1 2.521-3.888c2.9-3.055-4.692 6.746-.14 1.1a228.228 228.228 0 0 1-1.963 3.106c-.612.97-1.162 1.888-1.679 2.736-1.031 1.699-1.874 3.158-2.416 4.465 3.783-5.862 8.543-12.895 13.024-19.072 2.659-3.296-1.088 1.89.992-.701 1.192-1.465 2.28-2.73 3.207-3.956l1.335-1.77 1.271-1.649c.829-1.075 1.612-2.129 2.477-3.163a53.94 53.94 0 0 1 2.878-3.115l-.606 1.141c1.061-1.517 3.393-3.905 6.08-6.52l2.091-1.968c.707-.668 1.415-1.347 2.15-1.986l2.135-1.934 1.02-.947 1.001-.893c-.794.453-1.313.746-.676.071.112.172.617-.154 1.4-.802.392-.324.853-.73 1.37-1.193s1.083-.993 1.724-1.52l2.012-1.692c.706-.583 1.424-1.2 2.199-1.748a78.78 78.78 0 0 1 2.311-1.641c.768-.53 1.536-1.024 2.307-1.427-.374-.063.806-1.077 2.53-2.38.852-.667 1.902-1.305 2.927-1.983 1.037-.658 2.06-1.339 3.01-1.836 1.399-.588 1.216-.25 1.261-.12-.786.381-1.47.717-2.061 1.04-.58.34-1.08.649-1.519.935a25.553 25.553 0 0 0-2.112 1.531c-.6.463-1.118.966-1.78 1.53a38.098 38.098 0 0 1-2.571 2.007 87.692 87.692 0 0 1 3.185-2.23 29.13 29.13 0 0 1 1.836-1.159c.63-.38 1.269-.763 1.903-1.143.639-.374 1.254-.779 1.887-1.117l1.826-1.014c1.172-.65 2.205-1.311 3.077-1.8-.414.343-.825.686-1.219 1.061 1.408-.721 2.432-1.214 3.224-1.691.8-.462 1.387-.871 2-1.246a24.2 24.2 0 0 1 2.127-1.117c.437-.201.933-.414 1.516-.646.293-.113.603-.242.946-.355l1.116-.337-.517.497c6.225-2.402 13.316-4.14 20.17-5.005 6.858-.884 13.447-.968 18.806-.845.963-.188-4.421-1.081-4.711-1.272a189.13 189.13 0 0 0-4.392.2c-.666.022-1.302.11-1.918.187l-1.795.229c-2.337.245-4.447.748-6.864 1.126l.004-.47c-1.068.462-6.805 1.72-3.56 1.382-1.94.442-2.682.556-3.51.647-.415.048-.846.1-1.448.224-.302.061-.646.141-1.051.247-.407.1-.874.232-1.41.437.22-.624 2.882-1.267 2.829-1.684l-1.927.582c-.645.181-1.267.445-1.9.664 1.17-.545-2.348.527-1.224-.005-.87.34-1.683.62-2.44.904-.748.304-1.452.574-2.129.82-1.35.498-2.601.874-3.82 1.36-1.225.466-2.478.897-3.837 1.468a79.261 79.261 0 0 0-4.52 2.198c1.292-.603 2.597-1.178 3.893-1.768.084.266-2.138 1.275-3.758 2.157-1.004.323-1.78.645-2.746 1.1l-1.649.8c-.627.323-1.337.73-2.208 1.195a44.713 44.713 0 0 0-3.592 2.716c-.574.465-1.181.943-1.884 1.462-.351.26-.727.53-1.134.812-.397.298-.822.614-1.287.946.25-.494-1.336.557-3.104 1.752-1.73 1.245-3.614 2.668-4.09 2.759-.25.478-1.9 1.959-3.556 3.365a45.664 45.664 0 0 0-2.244 2c-.614.58-1.045 1.015-1.114 1.177-1.776 1.683-4.175 4.014-4.362 3.793.243-.256.732-.798 1.264-1.344l-1.768 1.68c.126-.203.032-.173.231-.38-1.58 1.497-1.32 1.785-3.469 3.632-.082-.11.987-1.21 1.822-2.14a66.062 66.062 0 0 0-5.218 5.899 90.204 90.204 0 0 1-2.29 2.734 32.92 32.92 0 0 1-2.429 2.606c-.488.847-4.673 6.064-3.344 5.284-1.289 1.274-1.201.46-4.129 4.372-.688 1.24-1.518 2.317-2.443 3.468-.917 1.156-1.952 2.371-2.88 3.988 1.21-2.162 1.217-2.165 1.142-2.132-.067.04-.18.145.914-1.732a31.596 31.596 0 0 0-1.66 2.24c-.562.855-1.153 1.798-1.784 2.806-1.283 2-2.636 4.318-4.275 6.697-.42.437-.526.34-.937.789-1.01 1.914-2.045 4.183-3.45 5.772l.413-.055c-2.194 3.26-4.9 8.034-7.246 11.565-.61 1.546-1.248 3.073-1.83 4.627-3.742 5.494-7.131 13.773-8.79 18.75-1.062 2.18-2.624 5.448-2.742 5.385.183-.532.482-1.443.856-2.493-.73 1.623-1.617 3.393-2.364 5.015-.733 1.628-1.307 3.114-1.464 4.141-1.283 3.42-1.354 2.334-2.465 4.825a48.631 48.631 0 0 1-.975 2.913 106.994 106.994 0 0 1-1.212 3.285l-2.69 6.898c-1.723 4.497-3.105 8.437-2.924 9.678.241-.715.545-1.59.902-2.58l1.228-3.279c.868-2.38 1.929-5.056 2.898-7.775-.401 1.477.215.432-.5 2.447-.987 2.709-1.793 4.74-2.582 6.78-.808 2.034-1.538 4.098-2.37 6.867l-.454-.865c-.968 2.295-1.697 4.612-2.385 6.876-.65 2.275-1.211 4.511-1.744 6.683-1.044 4.352-1.992 8.435-3.439 12.073" mask="url(#a)" transform="rotate(103 97.056 143.034)"/><path d="M143.247 84.103l-3.106-2.862.162.51c1.054.756 2.097 1.563 2.944 2.352m-2.944-2.352c-.697-.501-1.378-.968-2.026-1.387.73.565 1.433 1.1 2.074 1.52zM65.916 36.778c-.83-.407-2.456-1.211-4.152-1.885 1.06.564 3.256 1.597 4.152 1.885m-4.532-1.813c.629.307 1.245.64 1.868.96l.313.051c-.728-.335-1.448-.687-2.181-1.01m-89.088-77.774l-1.418-3.074-1.352-3.108c-.117-.59-.81-2.691-1.365-4.354-.519-1.676-.874-2.92-.327-1.793-.42-.921-.879-2.143-1.274-3.42a90.458 90.458 0 0 1-1.1-3.687c-.63-2.198-1.022-3.52-.97-1.846 2.602 9.578 6.302 20.869 11.649 31.895C-18.585-21.153-11.457-10.513-3.485-2.18c-.888-.856-1.805-1.693-2.653-2.591C-2.038-.386.782 2.583 3.49 5.28c.697.653 1.384 1.29 2.084 1.921l1.065.944 1.137.902c.777.599 1.582 1.215 2.466 1.82.898.583 1.858 1.178 2.901 1.79l-1.386-.308c.535.434 1.076.847 1.621 1.247.56.38 1.123.743 1.688 1.1a56.51 56.51 0 0 0 3.433 2.034c2.308 1.33 4.664 2.593 7.013 4.262l-.37-.473c1.337.708 1.813 1.083 3.17 1.806l-.487-.382c3.653 1.614 5.872 2.646 9.441 4.331.177.282-1.727-.652-2.874-1.088.794.445 1.947.882 3.25 1.358 1.322.428 2.8.879 4.232 1.428 2.184.996-.12.25-.463.201 8.684 2.893 12.254 5.072 18.537 6.818.638.1-2.055-1.218 1.039.035-5.425-2.694-10.105-4.184-15.332-5.904l1.43.528c-4.39-.717-3.038-1.283-9.748-3.492 1.86.373 4.717 1.449 5.921 1.699a68.662 68.662 0 0 0-4.887-2.083 161.691 161.691 0 0 0-3.894-1.534 22.844 22.844 0 0 1-1.725-.712 43.42 43.42 0 0 1-1.638-.77 27.699 27.699 0 0 1-1.616-.869 23.54 23.54 0 0 1-1.603-1.104l.536.253c-1.011-.64-3.002-1.463-4.605-2.348.232.2.733.54 1.302.915.57.372 1.232.741 1.748 1.066-1.687-.778-2.677-.95-3.298-1.121-.809-.692-1.43-1-2.198-1.368-.762-.376-1.65-.852-3.001-1.823-.794-.942 2.494 1.25 3.666 1.7-1.191-.59-2.328-1.278-3.498-1.915a34.53 34.53 0 0 1-1.013-.66 17.193 17.193 0 0 1-.736-.562c-.419-.339-.71-.608-.949-.85-.477-.483-.749-.855-1.429-1.446-1.32-.807-.982-.51-.604-.14.385.364.83.775-.288.189-1.426-1.35-5.513-4.494-9.65-8.362C-.285.479-4.496-4.041-7.107-7.05c1.8 2.068.888.523 3.005 3.075a58.02 58.02 0 0 0-2.1-2.399 25.37 25.37 0 0 0-1.134-1.153c-.306-.299-.52-.48-.58-.442a70.333 70.333 0 0 1-5.382-7.182c-.846-1.29-1.672-2.58-2.396-3.856l-1.073-1.856-.94-1.776.52 1.427c-2.655-3.472-5.13-9.656-8.43-16.534l.058.149c-.537-1.108-1.127-2.095-1.81-3.328-.695-1.227-1.4-2.733-2.153-4.863.757 1.062 1.605 3.33 1.819 2.98"/></g></svg>