<svg width="1440" height="215" xmlns="http://www.w3.org/2000/svg"><g fill="#1A2535" fill-rule="evenodd" opacity=".2"><path d="M.937.377C.338.52-2.628.11-5.603-.38c-2.97-.512-5.96-1.024-6.637-.966A174.9 174.9 0 0 1-4.117.16c1.931.395 2.862.68 2.132.706 2.425.297 4.848.611 7.281.846 2.43.109-.605-.575-4.359-1.335m14.097 2.897a29.53 29.53 0 0 1 1.692.095c-.796-.063-1.482-.112-1.692-.095M51.89 6.05a747.465 747.465 0 0 0-17.008-1.334c1.598.006.98-.22 4.859.122-7.515-.808-8.509-.581-14.724-1.15-.92-.298 1.828-.073 4.359.135 2.529.221 4.845.434 3.07.078a303.96 303.96 0 0 0-7.552-.582c-2.632-.176-5.164-.296-6.95-.265L11.026 2.03l2.32.729c1.393.217 2.823.273 4.115.338 1.294.054 2.453.1 3.309.345.865.274-1.972.092-3.964-.065 2.253.18 5.324.517 8.968.938 3.63.393 7.834.868 12.38 1.287 9.599.94 7.426-.038 13.736.451m.625.604l1.06.315-.743-.343zm18.534 1.767l-8.862-.891c-.942-.166-1.46-.33-2.072-.497.348.153-2.06.038-1.693.178 3.99.93 10.786 1.264 15.512 1.864 12.456 2.01-.6.146 4.21 1.26-3.496-.518-3.606-.644-8.459-1.35 7.564 1.54 17.215 2.528 22.109 3.219-1.406-.281-1.731-.475-4.446-.853 1.698.21 3.394.431 5.088.672-2.597-.618-5.016-1.091-8.245-1.644-3.23-.552-7.276-1.165-13.14-1.958m-15.76-2.059c3.288.365 4.514.565 4.775.656-.838-.223-1.934-.456-4.775-.656"/><path d="M94.451 12.635c-.546-.12-1.458-.26-2.658-.43a46.237 46.237 0 0 0 2.658.43m-4.92-1.337l6.148 1.063-2.38-.603c-.854-.118-3.891-.596-3.768-.46m230.225 59.319c-.485-.352-2.605-1.193-7.179-2.71.628-.043 6.505 2.024 9.301 2.857-5.949-2.222.197-.224-1.248-.967-6.692-2.35-9.788-3.05-16.958-5.57.383.06.296-.08-.612-.476-8.702-2.775-23.465-7.451-31.897-10.326-8.152-2.711-14.277-4.48-23.325-7.145a1071.639 1071.639 0 0 0-45.735-12.9c-15.631-4.038-31.63-7.827-47.987-11.183a170.76 170.76 0 0 0-4.731-.466c-1.537-.517-7.794-1.453-6.81-1.571 1.768.39 3.499.662 5.646 1.057-1.735-.426-3.768-.854-5.97-1.283-2.205-.424-4.574-.882-7.005-1.245-4.855-.768-9.892-1.533-14.103-2.31.954.242 2.27.867-.288.513.744-.394-9.995-1.656-12.384-2.65-8.415-1.55-.386.388-9.172-1.16-.975.144 8.414 1.552 9.967 2.041-2.79-.217-7.95-1.428-7.592-1.048 14.083 2.585 40.453 5.914 61.874 10.408l-2.318-.19c1.374.264 2.854.549 4.409.845l4.839 1.04c3.33.738 6.845 1.485 10.267 2.319 6.841 1.684 13.396 3.356 17.661 4.733-.984-.392 3.004.671 7.055 1.706 4.048 1.05 8.14 2.145 7.416 1.621 2.699.88 3.533 1.082 7.407 2.19l1.112.109c5.512 1.578 4.542 1.611 10.864 3.396-4.052-1.43.56-.194 2.461.123l11.213 3.769c3.776 1.247 7.43 2.545 10.61 3.639-.478-.234-1.043-.51-3.2-1.295 4.332 1.435 3.652.96 4.836 1.233 4.19 1.28 3.663 1.474 3.414 1.575 7.653 2.55 11.296 3.003 16.969 5.083l-1.955-.924c3.967 1.264 7.581 2.509 11.299 3.782 3.715 1.28 7.522 2.624 11.892 4.034 4.074 1.756-7.248-2.09-10.9-3.14 1.744.661 5.483 1.938 6.62 2.448l7.055 2.027 7.709 2.301c-4.529-1.082 6.507 2.634 9.473 3.71"/><path d="M295.52 62.579l-2.538-.696c.853.262 1.646.502 2.909.944.135-.006-.034-.102-.371-.248m24.236 8.038c.025.025.157.082.166.102.867.275.585.166-.166-.102M270.03 53.04l1.132.385 1.424.466-2.556-.85zm-6.897-.908c-1.663-.634-3.973-1.433-6.59-2.35.693.349 1.293.617 6.59 2.35M209.525 36.14c-1.671-.407-.74-.068-1.93-.302 3.422.943 4.597 1.172 1.93.302m95.513 29.712l6.632 2.172 2.45.76zM442.09 95.685l-1.185.048-1.247.014-2.649.067c-.914.021-1.854.081-2.815.086-.96.007-1.942.014-2.934.019-.992.011-1.996.02-3.002.029l-3.017-.076-2.982-.08c-.982-.05-1.949-.126-2.893-.191l-4.08-.194a51.144 51.144 0 0 0-2.248-.118c-1.024-.027-1.229.038-1.411.1-.362.097-.652.332-7.206-.545l2.332-.364-2.51-.325a51.368 51.368 0 0 1-2.612-.383l-5.465-.903c-1.855-.363-3.746-.734-5.646-1.104-1.898-.38-3.79-.837-5.678-1.246-7.526-1.74-14.75-3.683-20.162-5.137-.933-.377-3.115-1.165.185-.234-2.11-.634-3.432-1.045-4.433-1.287-.997-.248-1.661-.355-2.41-.502-1.503-.283-3.335-.743-8.837-2.803 10.496 3.265-3.259-1.565-.283-.952l1.639.527c-7.044-2.447-16.429-5.49-21.052-7.14-.252.094 3.71 1.748-2.512-.39 2.503.903 1.429.736 1.148.82 6.516 2.07 9.964 3.408 13.934 4.558 3.519 1.47-2.443-.783 1.076.688l5.238 1.627c3.768 1.385-3.996-1.17 1.908.961.723.11 5.547 1.695 10.224 3.286l-1.37-.383c3.582 1.175 8.646 2.81 7.015 1.925 1.378.55 2.745 1.139 4.137 1.658l-.666-.452c2.468.73 4.544 1.381 6.471 2l5.62 1.656c3.786 1.053 7.981 2.094 14.574 3.173-3.133-.694-.242-.225 1.459-.024l-3.435-.668a78.96 78.96 0 0 0-2.632-.438c-.828-.131-1.653-.23-2.588-.404a98.323 98.323 0 0 1-3.27-.667c-.707-.406 8.08 1.25 1.882-.293 1.683.48 3.348.83 4.93 1.16 1.581.32 3.073.66 4.458.891 2.767.476 5.025.965 6.466 1.46a303.36 303.36 0 0 0 5.476.703l4.54.373 2.215.177 2.351.127c1.64.078 3.444.27 5.59.333l-.258.087c.8-.186 2.542-.09 4.888.02 1.173.013 2.495.023 3.923 0a82.42 82.42 0 0 0 2.213-.063 48.423 48.423 0 0 0 2.331-.218l-2.266.056-2.268-.026c.215-.176 2.403-.162 5.47-.373-.339.08-.34.08.661.116.912-.234 10.534-1.132 11.71-1.47-1.009.11-2.07.26-3.171.403l-3.414.373c-2.326.305-4.75.472-7.125.623 1.203-.145 1.618-.272 2.233-.38.308-.054.666-.103 1.198-.147.532-.04 1.237-.08 2.237-.164"/><path d="M356.498 83.416l2.636.741c-1.067-.334-2.036-.618-2.636-.74m122.809 4.322c4.995-2.063-1.228.836 3.46-1.067 2.458-1.227.984-.659-.52-.133-1.5.535-3.022 1.037-.626-.169 3.108-1.14 7.797-3.762 9.74-4.78-2.077 1.258-.644.975.257.608 1.812-1.025 6.005-3.056 9.143-4.724-7.79 3.89 6.375-3.59-.678-.117.396-.474 7.537-4.523 10.537-5.942-.13.263-2.514 1.515-4.46 2.573-1.416 1.133 4.948-2.475 6.18-2.81 3.538-2.168 11.138-6.413 16.999-9.716 5.86-3.308 9.976-5.687 6.484-4.235-2.576 1.217-4.632 2.513-7.325 3.998 7.664-3.957.237.306-.347.768-3.285 1.629-8.736 4.847-7.585 3.928l5.003-3.01c-8.262 4.372-17.986 9.656-28.047 15.05-10.006 5.456-20.665 10.529-30.962 13.555a107.995 107.995 0 0 0 8.785-2.956c-.932.585-5.054 2.126-8.307 3.146a101.97 101.97 0 0 0 4.483-.925c-2.55.85-5.016 1.611-4.84 1.385-1.55.558-1.97.723-1.743.75.225.026 1.084-.133 2.056-.334-3.356 1.005-5.364 1.406-7.172 1.765-1.806.325-3.41.61-6.043 1.213 2.88-.393 4.922-.668 6.575-1.005a35.076 35.076 0 0 0 2.231-.514 39.91 39.91 0 0 0 1.957-.542c1.287-.375 2.617-.789 4.415-1.367 1.798-.573 4.069-1.31 7.205-2.43 1.06-.645 2.11-1.293 3.145-1.963"/><path d="M455.036 94.98l2.704-.697-4.206.824zm4.162-1.762c.161.08-1.51.407-1.35.487a38.27 38.27 0 0 0 2.912-.522c.632-.13.938-.225.98-.26.085-.066-.899.07-2.542.295m59.416-25.413l6.071-3.378-4.024 2.07c.148.041-1.3.876-2.048 1.308m42.54-23.84c-8.602 4.405-12.146 6.498-21.9 11.376-4.587 2.783 2.472-.644.576.68 4.82-2.471 3.972-2.629 8.908-5.314 1.958-.723 7.241-3.83 12.057-6.18-.636.195-.692.082.358-.562"/><path d="M591.554 30.565c4.031-1.784 8.014-3.773 11.292-4.97-.387.359-2.798 1.388-5.246 2.424.86-.178 1.973-.671 3.435-1.307 1.466-.632 3.257-1.475 5.518-2.22-.402.108-2.023.68-.812.113a270.34 270.34 0 0 0 5.837-2.282l3.176-1.251c.98-.386 2.064-.813 3.816-1.444 1.768-.582 4.187-1.427 7.871-2.525 2.09-.75 4.19-1.396 3.76-1.528 4.23-1.096 5.306-1.26 6.574-1.554 1.27-.28 2.754-.61 7.87-1.746-.418-.047-3.85.47-3.852.144l4.817-1.076c1.418-.3 2.658-.561 3.766-.797 2.21-.5 3.904-.841 5.431-1.161 1.528-.315 2.886-.63 4.456-.906 1.573-.268 3.349-.546 5.697-.871-1.049.201-2.274.496-4.807.895.645.114 2.596-.246 5.04-.738 2.454-.436 5.402-1.003 8.016-1.303l-.465.44c4.805-.691 13.126-1.83 19.246-1.861l-1.368.283 2.338-.208c.789-.045 1.584-.089 2.385-.136 1.6-.082 3.223-.183 4.855-.24 3.267-.065 6.572-.153 9.818-.101 6.495.083 12.749.467 18.014.876a228.773 228.773 0 0 1 5.635.822c3.624.342 4.534.46 4.038.346-.497-.108-2.41-.378-4.447-.64-4.072-.53-8.65-1.019-3.311-.809 1.522.86 7.53.495 15.707 2.116 1.913.448-.169.15-2.197-.135-2.032-.26-4.01-.5-1.885-.028 1.865-.093 4.391.551 8.748 1.22-.499.077 1.77.514 3.819.918 2.043.43 3.866.82 2.488.737 5.114.816 10.206 1.841 15.321 2.757 2.408.736 6.831 1.67 10.097 2.32-8.222-1.783 2.363.004-6.82-2.157-6.726-1.348-15.64-3.547-25.106-5.19-9.453-1.686-19.416-2.919-27.979-3.553-.955.171-3.702-.013-6.561-.125-2.858-.13-5.83-.203-7.203-.018-.394-.15-1.686-.3-2.101-.438-11.071.234 2.602.223-.095.426a95.75 95.75 0 0 1-6.137-.034c-1.528-.036-2.396-.103-2.176-.199-7.925.29-.872.161-4.898.573l-5.196-.164c-6.171.51-12.828 1.235-19.73 2.363-6.901 1.103-14.071 2.465-21.26 4.215a313.296 313.296 0 0 0-21.491 5.969 360.703 360.703 0 0 0-20.51 7.292c.698-.175 1.405-.322 2.105-.485-1.5.544-2.91 1.138-4.271 1.713l-3.94 1.7-7.221 3.376a310.618 310.618 0 0 1-6.966 3.268c-2.35 1.09-4.79 2.137-7.41 3.202l-3.346 1.92c1.82-1.052-2.198.525.708-1.117-3.076 1.587-6.439 3.128-9.61 4.804l5.768-2.682a84.258 84.258 0 0 1-5.8 3.006c-1.78.846-3.252 1.483-3.976 1.712-8.343 4.584 5.29-2.077 7.309-2.73a114.156 114.156 0 0 1 7.074-3.63 83.824 83.824 0 0 1 4.967-2.15c1.535-.618 3.06-1.218 4.918-2.017 1.87-.782 4.077-1.755 6.973-3.141 7.207-3.376-.896.061-.51-.282m-15.397 6.188a65.514 65.514 0 0 0-1.717.922 55.29 55.29 0 0 0 1.717-.922M782.045 15.14l3.658.765c1.255.184-.736-.18-3.658-.765"/><path d="M560.794 44.527s0 .002.029-.011l.084-.046-.113.056m-5.34 3.596l3.18-1.617-.622.15zm263.221-24.639l.07-.155c-.323-.02-.474 0-.069.155m100.306 16.78l-2.203-.23a39.447 39.447 0 0 0 2.203.23"/><path d="M1155.843 97.68c6.524 1.287 15.222 2.905 20.098 3.529l-.5.078c3.492.587 14.885 2.28 7.625.713l-1.798-.164c-8.319-1.26-5.966-1.372-12.393-2.72-7.782-1.46-12.372-1.777-19.21-3.409-3.008-.635-2.503-.702-1.59-.632-6.883-1.552-9.677-1.695-14.415-2.697-.808-.835-6.11-1.948-12.457-3.255-6.343-1.318-13.756-2.753-18.72-4.385-3.229-.684-6.95-1.693-10.907-2.691l-12.177-3.214c4.384.947-7.595-2.239-5.726-2.07-1.241-.005-7.02-1.79-12.664-3.632-5.655-1.808-11.19-3.63-12.048-3.403-10.789-3.722-.46-.08-12.945-4.305.063-.09 2.158.58 2.999.829-4.913-1.774-7.754-2.07-11.743-3.777-10.038-3.252-1.768-.305-7.827-1.94-5.222-1.692-7.092-2.318-8.366-2.796-1.275-.482-1.95-.82-4.802-1.884-.535.063-2.36-.397-4.7-1.047l-3.805-1.059c-1.336-.357-2.71-.696-4.02-1 .643.192 2.76.791 4.117 1.226 1.354.44 1.953.682-.42.08-6.137-1.727-8.612-2.341-11.012-2.832l-10.509-2.275c-5.767-1.842 11.583 2.674 1.47-.072 3.709.713 6.932 1.512 9.74 2.157 2.815.626 5.182 1.238 7.187 1.589-2.446-.676-5.02-1.405-7.7-2.06-2.676-.675-5.428-1.387-8.237-1.99l-4.218-.942c-1.41-.305-2.833-.56-4.242-.84l-4.21-.806c-1.392-.273-2.783-.472-4.149-.702-6.043-1.162 3.13.333-1.615-.574-10.8-2.111-16.74-2.21-25.407-3.486l1.834-.028c-1.335-.077-3.204-.28-5.416-.524l-7.48-.842c-5.417-.591-11.44-1.227-16.519-1.601 1.288.248 2.122.41.782.37.219-.636-14.137-.913-24.08-2.482.751.49-8.983-.334-15.105-1.3-2.138-.437-1.654-.532-1.605-.63 2.491.435 4.347.72 5.852.912a68.656 68.656 0 0 0 3.76.302l3.377.166c1.254.056 2.733.144 4.724.322a179.476 179.476 0 0 1-5.63-.552l-6.337-.804-6.161-.896c-1.926-.3-3.678-.586-5.117-.765l2.297.09c-4.537-.797-6.528-1.11-8.59-1.385-2.065-.255-4.143-.703-8.794-1.984l.98.004c-4.708-1.168-9.623-2.388-14.585-3.617a703.376 703.376 0 0 0-14.878-3.61c-9.82-2.263-19.216-4.214-26.876-5.579-1.365-.09 6.212 1.975 6.578 2.206 9.109 1.775 14.41 2.585 21.369 4l-.182.333c1.626.099 9.956 1.92 5.41.646 5.672 1.158 4.19 1.327 10.683 2.704-.623.239-4.47-.663-4.607-.37l5.663 1.196c-1.815-.293 3.329.949 1.576.672 5.251 1.051 8.864 1.983 12.513 2.956l2.773.74c.945.247 1.935.457 2.972.695l3.308.72c1.177.239 2.445.43 3.817.658l-3.033-.578c-1.008-.206-2.01-.445-3.015-.667.045-.097.93.042 2.132.269 1.201.227 2.733.462 4.05.676 2.917.845 4.71 1.07 10.328 2.025 2.44.23 4.347.344 6.466.494 2.123.119 4.455.303 7.748.653-.724.13 2.005.46 5.065.816 3.06.35 6.451.701 7.05.931 1.45-.264 12.762 1.04 13.7.903 3.532.242 8.343.79 8.292.993l-2.654-.198 3.5.367c-.337.013-.214.06-.628.026 3.12.318 3.18.056 7.21.69-.042.104-2.24-.139-4.033-.296 2.082.247 4.04.432 5.91.59l5.395.483c3.483.288 6.773.704 10.2 1.358 1.4-.018 10.957 1.52 8.97.762 2.553.578 1.503.757 8.468 1.95 2.029.197 3.95.656 6.033 1.127 1.041.24 2.121.491 3.274.737a87.436 87.436 0 0 0 3.683.787c-3.515-.624-3.526-.6-3.43-.554.095.048.302.103-2.79-.347 4.672 1.1 11.728 2.28 19.791 4.495.81.31.749.403 1.563.715 1.516.35 3.157.692 4.775 1.082 1.614.402 3.197.872 4.61 1.434l-.296-.35 9.279 2.867a216.68 216.68 0 0 1 9.523 3.166l6.97 1.69c8.969 3.384 21.381 6.91 28.749 8.764l5.426 1.774 2.07.712c.514.185.816.306.806.33l-3.69-.965c4.919 1.57 10.89 3.644 13.805 4.1 5.122 1.365 3.648 1.352 7.428 2.521 2.622.59 5.835 1.43 9.233 2.363l5.205 1.375a190.863 190.863 0 0 0 5.189 1.352c6.781 1.713 12.676 3.04 14.356 2.992a976.113 976.113 0 0 1-20.491-5.027c2.17.455.532-.145 3.541.615 4.075.97 7.143 1.775 10.224 2.547 3.086.76 6.175 1.512 10.285 2.378l-1.084.317c13.917 3.767 26.975 5.398 37.833 8.491"/><path d="M1051.694 71.019l5.737 2.104-.538-.416c-1.806-.526-3.628-1.106-5.199-1.688m5.199 1.688c1.195.347 2.35.663 3.427.95a84.28 84.28 0 0 0-3.576-1.059l.149.109zm122.789 29.573a138.54 138.54 0 0 0 6.517 1.148c-1.7-.364-5.17-.98-6.517-1.148m7 1.055l-2.985-.602-.45-.013zm177.185 18.758l9.759.654c1.693.352 12.734 1.186 9.138 1.14 5.824.155 18.41 1.602 13.762.631-14.283-1.08-31.244-2.83-48.77-4.747-17.523-1.909-35.614-3.926-52.16-5.393l5.319.328c-17.212-1.348-23.48-2.93-37.398-3.268l1.898-.297c-7.862-.837-15.132-.66-23.296-1.904l.774.263c-2.173-.199-3.021-.364-5.225-.575l.864.166c-5.744-.348-9.277-.73-14.918-1.452-.372-.185 2.652.216 4.415.358-2.581-.417-7.067-.568-11.463-1.083-3.434-.53.072-.206.552-.214-6.608-.648-11.385-1.357-15.683-1.959-4.298-.618-8.116-1.127-12.805-1.557-.916-.023 3.358.792-1.431.065 8.626 1.655 15.696 2.368 23.65 3.169l-2.198-.273c3.188.054 4.375.248 6.04.523 1.661.28 3.798.672 8.881 1.074-2.706-.013-7.108-.512-8.882-.58 11.63 1.864 16.77 1.419 24.447 2.818l-.859-.061c1.723.232 4.846.39 7.503.571-.866-.165-3.482-.45-5.236-.675 2.688.183 4.078.014 4.986-.029 2.98.566 4.003.215 8.77.787 1.673.426-4.015-.102-5.815-.117l5.762.326c5.271.447 5.165.758 7.753 1.138 4.488.191-2.588-.382 1.04-.353 2.794.423 10.234 1.138 18.404 1.936 8.172.79 17.076 1.633 22.817 2.12-3.948-.381-1.423.14-6.205-.41 1.72.24 7.899.763 7.97.556 7.958.669 18.01 1.917 25.383 2.93l-2.122-.448c6.256.331 15.674 2.008 26.7 2.983l-.23-.03c3.546.33 6.625.145 13.094.911-1.83.066-5.315-.311-4.985-.022m38.77 3.111l-3.612-.007c3.949.401 8.91.42 8.076.163-2.673-.156-6.14-.572-6.621-.444.434.078.376.18 2.158.288m73.867 4.031c1.445-.064 1.049-.175 1.667-.258-15.63.106-34.946-.976-41.154-1.602-5.252-.424-6.252-.047-12.884-.416l-2.964-.52c-3.588-.063-14.486-1.258-10.651-.464.394.076 3.131.02 6.173.338l-.506.13 7.057.472-2.272.043c9.608.992 6.798-.118 18.604.832l-.105.42c7.901.494 11.9.559 18.856 1.1 0 0 .072-.208-1.283-.18-1.303-.079-2.988-.323-2.086-.41 11.964.144-1.87.193 6.474.682 5.098.035 12.505.075 19.33-.06 6.828-.11 13.06-.493 15.866-.61-2.388.093-1.82-.093.044-.363 1.863-.267 5.014-.689 7.768-1.221 2.548-.349-1.687.612-2.598.828 2.6-.368 4.75-.648 7.213-1.468-1.661.344-1.964.287-1.149-.074.407-.18 1.103-.419 2.001-.812.226-.095.472-.186.723-.297l.772-.38c.565-.238 1.087-.601 1.693-.946-1.3.767-2.776 1.303-4.234 1.787a53.234 53.234 0 0 1-4.481 1.11 99.954 99.954 0 0 1-8.981 1.37 162.74 162.74 0 0 1-18.893.97M8.056 87.434a29.839 29.839 0 0 1 1.73.158c-.813-.092-1.514-.166-1.73-.158m37.61 4.926a632.568 632.568 0 0 0-17.35-2.408c1.637.09 1.014-.148 4.971.417-7.658-1.27-8.685-1.096-15.03-2.028-.927-.345 1.881.022 4.462.392 2.583.36 4.942.727 3.143.257-4.465-.649-11.16-1.527-14.816-1.664l-7.058-1.28 2.356.812c2.842.533 5.846.43 7.576 1.006.872.329-2.02-.03-4.053-.264 2.3.272 5.42.797 9.13 1.406 3.71.608 7.986 1.323 12.62 2.029 4.894.752 6.794.882 8.28.906 1.485.024 2.552-.035 5.77.42m.603.645l1.068.388-.742-.394zm18.875 3.036a766.438 766.438 0 0 0-9.022-1.508c-.955-.228-1.474-.432-2.091-.642.348.176-2.113-.097-1.745.066 4.03 1.2 10.969 2.005 15.77 2.944 12.626 2.904-.622.102 4.23 1.563-3.543-.774-3.65-.908-8.575-1.955 7.653 2.057 17.458 3.79 22.426 4.82-1.424-.37-1.743-.588-4.496-1.171l5.167 1.032c-5.25-1.55-9.754-2.713-21.664-5.149M49.133 92.9c3.343.595 4.59.865 4.85.978-.843-.282-1.954-.58-4.85-.978m39.703 9.038c-.552-.155-1.478-.358-2.698-.607a50.324 50.324 0 0 0 2.698.607m-4.955-1.667l6.233 1.479-2.401-.763c-.867-.177-3.953-.851-3.832-.716m234.089 70.74c-.51-.343-2.712-1.141-7.436-2.624.64-.046 6.716 1.97 9.617 2.728-6.173-2.105.194-.228-1.313-.942-6.932-2.234-10.11-2.936-17.518-5.398.393.058.301-.083-.638-.473-8.964-2.757-24.141-7.523-32.759-10.597-8.348-2.853-14.594-4.81-23.829-7.739-30.252-10.095-61.96-20.069-94.938-29.486l-4.813-.825c-1.535-.65-7.863-2.122-6.847-2.156 1.779.54 3.529.962 5.694 1.54-6.964-2.33-18.81-4.974-27.3-7.26.956.326 2.253 1.067-.334.486.791-.337-10.093-2.52-12.47-3.685-8.507-2.2-.419.344-9.312-1.855-1.006.065 8.511 2.17 10.06 2.797-2.836-.448-8.035-2.04-7.696-1.634 14.267 3.517 40.86 9.595 62.514 15.63l-2.36-.375c5.567 1.438 12.794 3.536 19.727 5.611 6.915 2.128 13.533 4.248 17.85 5.847-1.979-.905 16.142 5.209 14.683 4.133 2.731 1.021 3.579 1.269 7.505 2.581l1.135.16c5.606 1.805 4.607 1.811 11.032 3.876-4.11-1.614.58-.17 2.515.231l22.23 8.14c-.486-.248-1.062-.54-3.263-1.389 4.422 1.562 3.732 1.066 4.94 1.372 4.276 1.402 3.736 1.582 3.48 1.677 7.836 2.7 11.559 3.252 17.378 5.405l-2.005-.947c8.143 2.614 14.837 5.147 23.836 7.98 4.206 1.758-7.461-2.09-11.215-3.166 1.793.677 5.646 1.959 6.82 2.47 3.898 1.097 10.394 2.924 15.217 4.283-4.666-1.05 6.73 2.6 9.813 3.604"/><path d="M292.94 163.122l-2.612-.698c.878.263 1.695.503 2.997.947.14-.005-.035-.101-.384-.249m25.029 7.888c.026.023.162.079.174.098.898.258.605.154-.175-.097m-51.204-17.715l1.158.408 1.456.494-2.614-.902zm-7.068-1.043a476.53 476.53 0 0 0-6.727-2.531c.707.363 1.313.663 6.727 2.53m-54.561-18.11c-1.702-.484-.757-.102-1.97-.391 3.477 1.098 4.668 1.406 1.97.39m97.618 32.257l6.853 2.116 2.531.738zm141.722 27.731c-1.581-.04-3.344-.043-5.221-.023-1.877.027-3.87-.04-5.908-.035-4.075-.057-8.337-.189-12.214-.501l-2.37-.117-1.82-.123a60.105 60.105 0 0 0-2.31-.11c-1.051-.021-1.262.044-1.45.108-.187.06-.351.127-1.313.09-.96-.055-2.716-.224-6.087-.616l2.39-.384c-6.713-.791-14.804-2.084-22.584-3.64-7.781-1.547-15.26-3.298-20.89-4.492-.975-.347-3.243-1.082.176-.24-8.715-2.401-4.794-.301-16.31-3.941 10.94 2.81-3.427-1.425-.344-.941l1.71.456-5.855-1.671-6.055-1.767c-3.955-1.157-7.6-2.208-9.996-2.99-.254.097 3.868 1.671-2.586-.34 2.598.854 1.493.709 1.208.8 6.755 1.931 10.365 3.116 14.48 4.157 3.676 1.358-2.541-.705 1.136.654 1.812.493 3.636.943 5.456 1.415 3.941 1.223-4.162-.997 2.01.878.372.042 1.82.4 3.782.931l6.87 1.919-1.426-.32c1.878.476 4.12 1.123 5.686 1.514 1.572.376 2.457.54 1.6.125l4.321 1.501-.701-.442c5.117 1.328 8.62 2.328 12.542 3.282 1.952.505 4.019.955 6.439 1.433 2.414.509 5.202.945 8.59 1.439-3.231-.63-.25-.248 1.492-.02-5.602-1.108-6.962-.952-12.283-1.97-.738-.398 8.328 1.05 1.923-.344 3.486.863 6.847 1.37 9.68 1.896 2.845.461 5.18.86 6.658 1.395 4.299.547 7.275.855 10.28 1.047 3 .252 6.024.4 10.419.734l-.266.082c.821-.178 2.61-.067 5.015.065 1.2.082 2.558.1 4.022.098 1.465-.014 3.039-.009 4.67-.16-1.55.014-3.102-.063-4.652-.09.112-.086.73-.127 1.712-.148.984-.019 2.334-.011 3.91-.085-.35.075-.35.075.675.13.233-.08 1.028-.16 2.11-.236l1.8-.11 2.02-.167 3.87-.3c1.116-.09 1.963-.21 2.27-.254-2.076.2-4.39.317-6.788.54-1.198.118-2.423.173-3.65.238l-3.682.177c2.477-.24 1.718-.474 5.839-.527m-88.256-11.473c.906.227 1.823.424 2.735.63-1.112-.282-2.12-.521-2.735-.63m126.774 4.89c5.19-1.967-1.292.804 3.58-1 2.566-1.169 1.027-.65-.526-.142-1.557.502-3.136.966-.632-.181 3.223-1.078 8.119-3.623 10.149-4.598-2.18 1.207-.699.964.237.616 1.89-.992 6.266-2.938 9.53-4.577-8.103 3.791 6.647-3.51-.688-.128.428-.458 7.852-4.452 10.947-5.875-.142.263-2.604 1.518-4.627 2.56-1.479 1.133 5.123-2.454 6.39-2.79 7.348-4.321 31.387-17.14 24.23-14.133-2.645 1.25-4.758 2.577-7.532 4.087 7.883-4.035.238.306-.365.774-3.375 1.67-9.01 4.912-7.814 3.987l5.164-3.046c-8.507 4.444-18.553 9.754-29.03 15.003-10.45 5.252-21.534 10.205-32.223 12.877 3.08-.746 6.12-1.668 9.122-2.703-.98.561-5.26 1.998-8.644 2.907a86.562 86.562 0 0 0 4.632-.785c-2.65.776-5.212 1.454-5.02 1.235-3.249.942-1.723.732.3.429-3.485.89-5.598 1.17-7.457 1.412-1.867.223-3.517.51-6.251.944 2.974-.208 5.078-.492 6.78-.698 1.712-.236 3.022-.525 4.363-.838 2.677-.67 5.561-1.382 12.084-3.446 1.116-.609 2.21-1.253 3.302-1.892"/><path d="M457.786 193.918l2.804-.594c-1.45.206-2.894.478-4.353.626.515-.012 1.035 0 1.549-.032m4.356-1.606c.16.085-1.569.35-1.41.436 1.374-.156 2.363-.27 3.018-.37.652-.112.975-.18 1.02-.214.087-.074-.92.042-2.628.148m61.699-24.266l6.266-3.416-4.148 2.095c.15.04-1.345.89-2.117 1.32m43.684-24.485c-8.791 4.598-12.418 6.774-22.42 11.805-4.71 2.856 2.53-.68.58.676 4.947-2.551 4.085-2.69 9.139-5.473 2.007-.754 7.413-3.973 12.334-6.436-.649.21-.706.098.367-.572m31-14.248c4.103-1.918 8.148-4.05 11.476-5.378-.39.373-2.839 1.497-5.326 2.627 1.757-.41 4.526-2.137 9.096-3.887-.411.123-2.048.787-.828.151 5.597-2.363 7.137-3.105 9.12-3.972.99-.438 2.086-.917 3.855-1.648 1.782-.695 4.228-1.662 7.942-3.007 2.103-.887 4.22-1.67 3.772-1.774 4.269-1.388 5.358-1.636 6.638-2.02l7.943-2.35c-.432-.014-3.908.77-3.932.443l14.116-4.198c1.536-.453 2.904-.875 4.483-1.309a189.02 189.02 0 0 1 5.75-1.4c-1.055.3-2.285.707-4.84 1.342.668.054 2.634-.49 5.092-1.208 2.465-.693 5.431-1.52 8.072-2.105l-.434.487c4.85-1.164 13.23-3.218 19.475-3.93l-1.368.432c3.118-.655 6.4-1.146 9.714-1.691l5.004-.677c.838-.108 1.672-.218 2.505-.325l2.496-.271c6.634-.716 13.06-1.108 18.476-1.375 1.95-.002 3.9.05 5.849.087 3.736-.108 4.678-.136 4.157-.173-.522-.048-2.503-.05-4.614-.068-4.216 0-8.945.112-3.479-.376 1.664.675 7.736-.473 16.277.093 2.006.22-.152.154-2.255.15-2.104-.007-4.15.002-1.923.206 1.885-.316 4.545-.022 9.069.113-.5.144 1.87.27 4.008.44 2.138.152 4.042.357 2.627.424 5.314.203 10.625.607 15.938 1.083 2.533.506 7.129 1.121 10.517 1.577-8.548-1.244 2.428-.183-7.15-1.687-3.504-.425-7.59-.927-12.041-1.372a283.328 283.328 0 0 0-14.185-1.052c-9.849-.498-20.158-.4-28.961.031-.952.295-3.773.46-6.703.693-2.93.228-5.968.513-7.346.858-.423-.113-1.755-.087-2.195-.174-11.266 1.533 2.68-.084-.047.434-2.463.348-4.699.565-6.264.699-1.56.151-2.455.174-2.24.056-8.054 1.2-.875.247-4.935 1.143l-5.322.413c-12.494 2.351-26.836 5.943-41.303 10.57a456.684 456.684 0 0 0-21.629 7.54 560.023 560.023 0 0 0-20.719 8.384c.709-.205 1.425-.392 2.138-.583-3.024 1.263-5.751 2.535-8.327 3.75l-7.342 3.623a319.28 319.28 0 0 1-7.09 3.49 165.54 165.54 0 0 1-7.552 3.419l-3.41 2.014c1.854-1.103-2.243.585.718-1.14-3.132 1.677-6.569 3.297-9.805 5.058l5.888-2.83c-3.947 2.311-8.51 4.454-9.983 4.96-8.528 4.778 5.41-2.19 7.467-2.904a126.388 126.388 0 0 1 7.217-3.822 91.187 91.187 0 0 1 5.066-2.29c1.564-.662 3.118-1.307 5.012-2.163a154.546 154.546 0 0 0 7.1-3.364c7.328-3.623-.917.089-.525-.267"/><path d="M582.838 135.964a71.34 71.34 0 0 0-1.749.97c.621-.332 1.196-.65 1.75-.97m210.155-40.139l3.793.572c1.296.12-.765-.145-3.793-.572M567.16 144.132s0 .002.03-.01l.086-.05-.117.06m-5.461 3.72l3.254-1.684-.635.163zm268.982-44.025l.073-.153c-.328-.035-.483-.018-.073.153m100.526 28.433l-2.227-.468a40.254 40.254 0 0 0 2.227.468"/><path d="M1176.129 186.066c6.741 1.084 15.716 2.486 20.738 3.003l-.512.089c3.6.514 15.334 2.02 7.843.576l-1.848-.14c-8.572-1.098-6.161-1.252-12.801-2.454-8.037-1.262-12.755-1.446-19.834-2.858-3.113-.538-2.598-.62-1.659-.58-7.123-1.33-9.995-1.37-14.896-2.215-1.728-1.617-21.951-3.719-32.295-6.605-3.337-.605-7.21-1.43-11.317-2.273a997.038 997.038 0 0 0-12.669-2.626c4.553.714-7.921-1.83-5.995-1.77-1.272.074-7.306-1.406-13.214-2.912-5.914-1.488-11.709-2.978-12.57-2.706-11.298-3.112-.48-.041-13.543-3.575.056-.092 2.246.462 3.122.665-5.146-1.504-8.076-1.637-12.269-3.146-10.48-2.745-1.83-.208-8.13-1.556-10.901-2.886-7.792-2.225-13.744-4.125-1.094.184-7.547-1.662-12.96-2.748 1.33.35 8.76 2.27 3.833 1.23-6.347-1.609-8.911-2.141-11.379-2.633-2.463-.501-4.838-.928-10.82-2.257-5.932-1.874 11.906 2.75 1.508-.062 7.607 1.522 13.316 2.937 17.44 3.582-10.107-2.524-22.485-5.319-33.648-7.502-6.162-1.404 3.198.456-1.638-.639-10.994-2.567-17.063-3.075-25.838-5.087l1.88.126c-5.439-.776-19.49-4.02-29.747-6.041 1.283.408 2.115.676.752.466.298-.588-14.3-2.696-24.194-5.705.699.59-9.092-1.615-15.176-3.477-2.116-.735-1.608-.77-1.546-.857a134.043 134.043 0 0 0 5.826 1.746c1.503.41 2.676.632 3.777.855l3.408.654c1.265.248 2.76.533 4.76.994-3.344-.715-7.722-1.884-11.977-3.079-2.121-.617-4.218-1.226-6.138-1.786-1.914-.59-3.66-1.107-5.102-1.493l2.326.416c-8.962-3.013-8.069-2.055-17.287-5.668l1.002.112c-4.696-1.669-9.613-3.374-14.623-4.954-5.011-1.57-10.098-3.07-15.11-4.367-10.023-2.612-19.713-4.506-27.627-5.614-.701-.026.912.421 2.745.9 1.832.492 3.88 1.034 4.07 1.142 4.684.826 8.382 1.477 11.796 2.126 3.415.644 6.55 1.277 10.098 2.111l-.195.325c1.666.147 10.133 2.377 5.522.88 2.89.705 3.94 1.126 5.104 1.545 1.16.428 2.43.874 5.708 1.804-.65.182-4.536-.973-4.692-.682 1.911.51 3.815 1.04 5.715 1.59-1.83-.442 3.33 1.22 1.56.799 5.278 1.503 8.866 2.84 12.48 4.229 3.607 1.389 7.257 2.903 12.716 4.573-2.012-.642-3.99-1.388-5.976-2.112.06-.091.943.17 2.135.561l1.96.65 2.058.623a56.232 56.232 0 0 0 4.085 1.577l6.134 1.943c2.446.587 4.373.961 6.506 1.423 2.137.44 4.49.928 7.788 1.76-.754.028 1.981.733 5.049 1.51 3.066.782 6.48 1.56 7.06 1.875 1.504-.043 12.89 2.653 13.869 2.608 3.572.672 8.438 1.71 8.364 1.913l-2.692-.483 3.54.744c-.346-.025-.225.035-.642-.043 3.156.66 3.245.38 7.311 1.411-.053.097-2.28-.358-4.101-.688 8.435 1.794 14.907 2.412 21.85 4.226 1.435.09 11.169 2.133 9.16 1.273 2.597.7 1.518.809 8.629 2.292 4.156.526 7.885 1.88 13.32 2.876-7.23-1.26-.054.088-6.389-.97 4.79 1.214 12.051 2.396 20.383 4.485.84.288.783.383 1.628.68 3.135.646 6.782 1.228 9.724 2.28l-.32-.343c5.636 1.54 13.57 3.466 19.589 5.292l7.24 1.345c9.403 2.93 22.352 5.742 30.025 7.158l5.677 1.463 2.169.59c.54.155.858.258.848.284l-3.844-.75c5.146 1.28 11.395 3.027 14.41 3.32 5.332 1.099 3.823 1.158 7.769 2.126a242.916 242.916 0 0 1 9.593 1.92l10.784 2.326c7.026 1.462 13.122 2.647 14.843 2.526a584.281 584.281 0 0 1-9.112-1.83l-12.117-2.5c2.248.36.536-.17 3.663.461 8.438 1.676 12.736 2.803 21.239 4.265l-1.1.352c14.436 3.301 27.899 4.463 39.155 7.235"/><path d="M1067.99 163.727l6.019 1.774-.58-.389c-1.884-.424-3.791-.895-5.44-1.386"/><path d="M1073.428 165.113c1.246.285 2.451.527 3.574.754-1.334-.33-2.618-.624-3.733-.854l.16.1zm127.306 24.955a146.483 146.483 0 0 0 6.714 1.039c-1.755-.33-5.327-.9-6.714-1.04m7.208.943l-3.076-.555-.463-.006zm181.953 19.358l10.026.625c1.742.342 13.084 1.17 9.392 1.127 5.982.149 18.908 1.63 14.133.646-29.339-2.22-69.728-6.87-103.701-9.9l5.46.339c-17.674-1.382-24.1-3.006-38.38-3.523l1.95-.272c-8.064-.94-15.527-.88-23.899-2.247l.794.274c-2.23-.232-3.098-.413-5.358-.653l.884.18c-5.894-.437-9.518-.857-15.306-1.648-.38-.192 2.722.251 4.531.409-2.648-.446-7.253-.651-11.766-1.196-3.526-.552.072-.206.568-.211-13.57-1.43-19.637-2.774-29.287-3.48-.94-.012 3.464.748-1.467.082 8.886 1.548 16.147 2.243 24.316 3.079l-2.257-.283c6.545.131 4.883.78 15.319 1.702-2.78-.038-7.296-.584-9.119-.652 11.937 1.946 17.211 1.588 25.082 3.094l-.883-.072c1.77.254 4.971.462 7.697.682-.886-.18-3.57-.498-5.369-.754 2.759.227 4.187.075 5.12.046 3.055.616 4.109.278 8.994.922 1.714.452-4.12-.162-5.966-.205l5.912.413c5.406.528 5.294.835 7.95 1.25 4.604.252-2.655-.415 1.068-.338 5.732.899 30.52 3.338 42.313 4.317-4.056-.384-1.462.143-6.373-.414 1.767.247 8.114.765 8.184.56 8.174.667 18.503 1.881 26.083 2.862l-2.183-.44c6.426.305 16.112 1.934 27.441 2.855l-.236-.03c3.644.319 6.804.114 13.454.86-1.88.074-5.46-.293-5.12-.006m39.828 3.1l-3.709-.016c4.055.41 9.147.448 8.293.185-2.747-.161-6.306-.591-6.801-.463.445.08.387.181 2.217.294m75.847 5.139c1.487-.007 1.084-.135 1.724-.192-16.067-.595-35.889-1.879-42.265-2.572-5.393-.48-6.42-.108-13.231-.526l-3.044-.534c-3.683-.096-14.878-1.326-10.938-.517.405.074 3.216.03 6.34.364l-.52.129 7.247.51-2.334.03c9.863 1.056 6.982-.085 19.104.986l-.112.418c8.111.593 12.218.721 19.354 1.412 0 0 .078-.207-1.315-.21-1.338-.104-3.065-.381-2.136-.45 12.288.406-1.925.146 6.638.825l19.856.622c7.018.214 13.445.317 16.334.468-4.916-.292 2.396-.426 8.203-.703 1.328 0 .874.088-.03.202-.907.113-2.272.209-2.744.294 2.713-.048 4.94-.05 7.594-.425-1.743.095-2.057-.054-1.153-.25.44-.126 1.204-.238 2.19-.46l.791-.166c.268-.072.55-.148.848-.226a7.216 7.216 0 0 0 1.626-.636 5.67 5.67 0 0 0-.403.177c-.111.073-.335.108-.495.167-.333.116-.72.197-1.105.275-.374.09-.774.149-1.171.208-.396.063-.787.126-1.192.165-1.593.205-3.202.309-4.782.419-3.17.198-6.281.303-9.396.379-6.232.144-12.495.131-19.483-.183"/></g></svg>