<svg xmlns="http://www.w3.org/2000/svg" width="243" height="651"><g fill="#283241" fill-rule="evenodd" opacity=".25"><path d="M256.98 657.14c-4.625-2.757 1.439.404-2.873-2.201-2.464-1.194-1.152-.32.161.572 1.318.887 2.603 1.849.185.7-1.387-.892-3.303-1.89-5.111-2.797l-2.553-1.264a66.334 66.334 0 0 1-1.945-.931c2.253.905 1.244-.192.434-.727-1.917-.801-5.898-3.23-9.112-4.752 7.682 4.085-6.66-3.017.248.724-.325.01-2.353-.828-4.659-1.875-2.303-1.053-4.936-2.203-6.386-3.008.308-.1 2.735 1.056 4.751 1.964 1.797.365-4.93-2.493-5.906-3.354-3.9-1.444-11.973-4.65-18.178-7.187-3.079-1.33-5.731-2.419-7.19-2.975-1.45-.57-1.748-.528-.163.521 2.496 1.375 4.801 2.17 7.606 3.427-7.748-3.781.141-.462.877-.33 3.303 1.575 9.219 3.787 7.761 3.524l-5.489-1.972 13.837 6.043 7.437 3.42 7.599 3.686a401.502 401.502 0 0 1 29.586 16.365c-2.63-1.62-5.247-3.264-7.934-4.789.53.164 1.748.786 3.204 1.58l4.598 2.652-3.55-2.895c2.258 1.44 4.49 2.702 4.18 2.768 2.924 1.489 1.735.575.171-.63 1.491.89 2.675 1.588 3.656 2.222l2.545 1.663a77.061 77.061 0 0 0 5.272 3.136c-9.426-6.707-8.364-5.045-19.5-12.177l-3.559-1.103zm-39.29-19.805l-6.415-2.627 4.099 1.883c-.05-.17 1.51.433 2.315.744m-44.01-20.642c2.053 1.278 3.802 2.389 5.454 3.357l4.771 2.692c1.549.919 3.2 1.73 5.005 2.742l2.887 1.605 3.353 1.779c4.969 2.023-1.888-1.78.33-1.084-2.401-1.235-3.521-1.637-4.658-2.068-1.144-.418-2.325-.825-4.826-2.1-1.629-1.32-7.16-3.967-11.594-6.982.473.472.387.608-.722.059"/><path d="M148.872 594.778c-1.576-1.526-3.022-3.185-4.459-4.701-1.458-1.498-2.643-3.08-3.675-4.474.24.125.78.685 1.46 1.477.34.396.716.849 1.105 1.335l1.271 1.466c-.19-.4-.49-.821-.875-1.289-.385-.468-.814-1.018-1.327-1.621-.509-.608-1.08-1.286-1.692-2.056a48.44 48.44 0 0 1-.944-1.225c-.32-.435-.61-.924-.923-1.425.194.366 1.112 1.807.262.79-1.662-2.423-2.804-3.919-3.581-5.094-.772-1.177-1.308-1.946-1.9-2.81-.59-.866-1.262-1.813-2.137-3.447l-1.62-2.957a23.71 23.71 0 0 1-.984-1.98l-1.105-2.395c-1.12-1.912-1.924-3.949-2.08-3.475a250.51 250.51 0 0 1-1.503-4.256c-.285-.934-.42-1.515-.595-2.138-.17-.627-.36-1.304-.702-2.444-.163-.573-.399-1.25-.626-2.116-.222-.866-.487-1.904-.808-3.166-.071.428.474 3.856.076 3.906-1.915-7.17-2.704-10.859-3.414-13.89-.607-3.05-1.208-5.434-1.605-10.15.183 1.048.433 2.28.783 4.81.367-1.294-1.327-7.812-1.635-13.068l.538.47-.233-1.954-.181-2.223-.384-4.958a171.741 171.741 0 0 1-.126-5.207v-2.522c.032-.821.083-1.618.138-2.378l.222 1.38a4773.57 4773.57 0 0 0-.044-4.72v-2.412l.085-2.433.19-4.9c.078-1.635.227-3.262.34-4.879.128-1.614.223-3.216.378-4.789l.477-4.624c.278-3.019.655-5.874.961-8.491.36-1.863.68-3.73 1.097-5.581.954-7.205.347-3.65-.381.386-.694 4.04-1.39 8.583-1.057 3.254.276-.367.458-1.017.598-1.915.16-.895.289-2.036.431-3.389.286-2.702.629-6.249 1.487-10.312.984-3.805-1.175 8.317-.07 4.1-.158-1.882.586-4.387 1.168-8.756.289 1.012 1.438-9.135 1.513-6.355.483-5.17.91-10.346 1.2-15.526.565-2.458.894-6.965 1.116-10.283-.727 8.366-.43-2.343-1.466 7.001-.593 6.816-1.675 15.894-3.136 25.35-1.53 9.439-3.177 19.315-4.298 27.806.196.969-.099 3.699-.419 6.536-.316 2.838-.524 5.797-.404 7.177-.222.382-.487 1.655-.71 2.056-.43 11.044.43-2.575.536.13-.179 4.827-.706 8.706-.908 8.254-.17 7.916.145.882.403 4.92-.243 1.718-.511 3.438-.67 5.166l.136 4.726c.026 1.606.196 3.235.289 4.89.166 3.314.587 6.708.96 10.18.918 6.925 2.257 14.1 4.209 21.23a124.38 124.38 0 0 0 7.841 20.829c3.217 6.669 7.032 12.939 11.163 18.64l-.904-1.983c.453.654.881 1.306 1.342 1.917l1.401 1.763c.932 1.141 1.808 2.263 2.73 3.294l2.768 2.955 1.35 1.422 1.399 1.337 2.745 2.66c.908.89 1.883 1.713 2.816 2.603.95.87 1.867 1.803 2.85 2.704.991.894 1.988 1.828 3 2.814l1.583 1.09 1.631 1.024c-1.787-1.106 1.379 1.82-1.443.028 1.42.991 2.843 2.077 4.277 3.172 1.434 1.095 2.96 2.095 4.458 3.077-1.692-1.278-3.44-2.476-5.061-3.844.468.301.936.613 1.399.931.472.306.943.611 1.406.913a67.319 67.319 0 0 1 2.599 1.807c.796.577 1.495 1.133 2.081 1.587.592.445 1.048.818 1.323 1.084 4.122 2.375 3.018 1.464.701-.21l-1.904-1.361-1.937-1.491c-1.235-.959-2.285-1.788-2.663-2.156-1.439-.844-2.593-1.735-3.662-2.478a90.675 90.675 0 0 1-2.792-2.09c-1.59-1.34-2.788-2.495-3.973-3.633-1.206-1.113-2.272-2.351-3.702-3.759-.702-.718-1.519-1.454-2.39-2.342a127.724 127.724 0 0 0-2.996-2.98c-5.55-5.597.251.908-.188.664"/><path d="M160.312 606.75c.644.498 1.16.876 1.584 1.137-.57-.385-1.072-.779-1.584-1.137m-35.21-197.382l.21-3.727c-.026-1.268-.08.753-.21 3.727M174.4 616.634s.002-.002-.022-.02l-.084-.048.106.068m5.93 2.532c-1.03-.584-2.009-1.25-3.008-1.881l.421.491c.856.475 1.706.96 2.586 1.39M124.251 371.84l-.217.008c.129.303.225.43.217-.008m-52.79-85.857l1.429 1.688a30.348 30.348 0 0 0-1.429-1.688"/><path d="M64.945 92.88c5.706-3.362 13.505-7.475 17.766-9.915l-.334.401c3.104-1.676 13.409-6.808 6.52-4.033l-1.55.933c-7.447 3.909-5.67 2.311-11.619 5.122-7.02 3.708-10.62 6.615-16.78 9.974-2.635 1.58-2.325 1.17-1.636.552-6.091 3.582-8.042 5.656-12.003 8.417-1.247-.112-5.71 3.01-10.658 7.215-4.978 4.182-10.317 9.482-14.22 12.995-2.176 2.5-4.694 5.448-7.075 8.792-2.378 3.342-4.59 7.094-6.274 10.966.408-1.049.39-1.132.138-.691a25.287 25.287 0 0 0-1.206 2.467c-.993 2.103-1.865 4.62-1.776 3.663.013.326-.146.914-.351 1.724-.195.813-.497 1.828-.832 2.989-.589 2.341-1.364 5.26-1.753 8.229-.954 5.918-.61 11.846.07 12.53.083 2.85.327 4.292.385 5.075.08.78.123.888.164 1.052.042.164.095.382.263 1.372.092.494.177 1.188.368 2.153.21.961.425 2.216.805 3.82-.167.01-.647-2.141-.86-2.995.904 5.183 2.481 7.632 3.432 11.868l.592 1.661.512 1.26a44.9 44.9 0 0 0 .673 1.575c.316.692.398.752.442.685.1-.143-.02-.767 1.419 2.011 2.21 5.003 3.13 6.748 3.657 8.002.53 1.255.725 1.994 2.038 4.746.937.598 4.104 6.314 7.374 10.578-.767-1.096-4.698-7.426-1.863-3.443 3.445 5.338 5.061 7.311 6.587 9.213l6.798 8.285c1.624 2.55-.22.234-1.71-1.661-.753-.94-1.385-1.8-1.47-1.876-.084-.079.363.637 1.898 2.752-4.895-5.73-8.18-10.406-10.826-13.497 2.812 4.218 6.175 8.728 9.746 13.212 3.559 4.497 7.45 8.866 11.112 13.002 3.902 4.739-2.25-2.198.82 1.517 6.886 8.536 11.412 12.396 16.891 19.215l-1.425-1.164c3.793 3.766 12.53 14.722 19.257 22.337-.711-1.105-1.17-1.821-.23-.868-.739.411 9.475 10.502 15.189 18.781-.041-.474 1.49 1.167 3.513 3.534 1.975 2.404 4.46 5.524 6.234 8.058 1.14 1.86.698 1.605.567 1.655-2.761-4.231-4.375-6.085-5.839-7.71-1.452-1.634-2.882-2.951-5.411-6.034a183.426 183.426 0 0 1 3.554 4.384c1.264 1.618 2.545 3.371 3.837 5.087 1.283 1.72 2.482 3.467 3.638 5.031 1.153 1.568 2.136 3.039 3.025 4.186l-1.593-1.67c2.543 3.823 3.733 5.446 4.983 7.108.634.823 1.218 1.695 1.924 2.895.693 1.205 1.592 2.694 2.548 4.91l-.689-.72c2.26 4.275 4.208 8.94 5.907 13.733a105.95 105.95 0 0 1 3.707 14.75c1.67 9.888 1.856 19.467 1.939 27.222.103.679.358-.931.612-2.77.255-1.837.382-3.907.49-4.113-.04-1.164-.058-2.266-.122-3.318l-.25-3.01c-.087-.96-.158-1.88-.255-2.769-.126-.886-.247-1.746-.365-2.588l-.355-2.48c-.117-.817-.302-1.62-.447-2.429-.325-1.617-.568-3.266-1.007-4.986l.479.014c-.157-.381-.392-1.19-.643-2.11l-.383-1.428c-.137-.478-.299-.938-.433-1.353-.55-1.66-.89-2.547-.428-.242-.826-2.76-.995-3.842-1.288-5.006a32.209 32.209 0 0 0-.528-2.053 43.937 43.937 0 0 0-.468-1.49 61.725 61.725 0 0 0-.812-1.98c.318.174.871 1.17 1.328 2.142.442.977.857 1.904 1.06 1.874-.342-.911-.642-1.835-1.016-2.73l-1.142-2.679c.83 1.657-1.08-3.313-.273-1.72-2.373-4.85-3.971-8.226-5.725-11.594-.888-1.675-1.733-3.394-2.848-5.207l-1.753-2.897c-.647-1.012-1.382-2.063-2.17-3.205l1.666 2.595c.553.867 1.058 1.767 1.59 2.647-.128.05-.648-.68-1.318-1.703a214.675 214.675 0 0 0-2.323-3.38 30.016 30.016 0 0 0-2.12-3.7c-.859-1.276-1.867-2.862-3.51-5.183-3.085-3.807-5.123-5.673-9.233-10.849.642.389-1.022-1.795-2.903-4.229-1.908-2.41-4.034-5.07-4.259-5.683-1.291-.77-8.36-9.677-9.197-10.176-2.362-2.627-5.465-6.332-5.238-6.487l1.794 1.961-2.27-2.684c.262.216.214.09.49.399-2.029-2.389-2.331-2.171-4.788-5.426.122-.064 1.563 1.611 2.77 2.945-5.387-6.419-10.137-10.62-14.309-16.215-1.083-.893-7.37-8.233-6.435-6.295-1.549-2.107-.564-1.627-5.187-6.962-2.969-2.804-4.972-6.104-8.523-10.117 2.393 2.64 2.44 2.607 2.396 2.51-.042-.099-.156-.28 2.003 1.968-2.91-3.794-7.874-8.95-12.59-15.818-.398-.767-.267-.819-.667-1.59-.946-1.227-2.007-2.52-2.951-3.877-.961-1.347-1.863-2.724-2.472-4.114l-.079.495c-2.873-4.867-6.77-11.767-8.87-17.468-.597-1.027-1.128-2.084-1.67-3.14l-.815-1.586-.758-1.614c-1.344-4.575-2.873-9.914-3.891-15.135-1.047-5.21-1.547-10.294-1.634-14.095.133-3.527 1.103-8.7 1.298-8.639-.048.402-.142.94-.196 1.585l-.182 2.183c.186-1.265.379-2.602.7-3.916.153-.658.275-1.322.447-1.966l.517-1.895c.681-2.469 1.4-4.632 1.686-6.077 1.84-4.941 1.804-3.423 3.593-6.885 1.121-2.4 2.696-5.309 4.746-8.144 2.033-2.841 4.356-5.726 6.739-8.245 1.156-1.288 2.361-2.455 3.44-3.585l3.069-3.008a55.901 55.901 0 0 0 2.34-2.338c.629-.646 1.08-1.164 1.294-1.535l-1.381 1.178-1.597 1.425c-1.152.998-2.39 2.179-3.716 3.448-2.623 2.565-5.484 5.615-8.055 8.92 1.29-1.8.024-.59 1.977-3.016 1.378-1.584 2.598-2.973 3.823-4.177 1.19-1.24 2.359-2.319 3.523-3.4 1.15-1.098 2.377-2.111 3.64-3.273 1.31-1.106 2.67-2.353 4.28-3.7l-.314 1.166c5.744-4.289 11.156-8.45 16.454-12.159 5.294-3.703 10.461-6.94 15.609-9.23"/><path d="M1.762 172.212l.057-1.51.134-1.505c.09-1.002.167-2.002.335-2.993l-.357.605c-.062.928-.037 1.867-.086 2.778-.055.91-.05 1.797-.083 2.625"/><path d="M1.931 166.81c.094-1.226.079-2.418.2-3.516-.204 1.31-.239 2.587-.291 3.683l.091-.168zm84.471-85.083a157.896 157.896 0 0 0 5.98-2.777c-1.615.632-4.801 2.114-5.98 2.777m6.309-3.166c-.94.382-1.874.77-2.804 1.169l-.368.263c1.052-.487 2.109-.966 3.172-1.432M248.74-3.496c1.173-1.123 2.24-2.355 3.35-3.538l3.302-3.577c.339-.266 1.082-.952 1.942-1.813l2.67-2.849c1.723-1.841 3.014-3.187 1.938-1.753.875-1.161 2.155-2.529 3.355-4.034l3.562-4.239c2.142-2.494 3.295-4.101 1.548-2.506-8.972 11.042-20.825 23.258-34.313 34.424-13.453 11.212-28.523 21.311-42.958 29.337l4.47-2.85a290.722 290.722 0 0 1-5.127 3.044c-1.636.85-3.164 1.614-4.61 2.33-2.898 1.407-5.431 2.679-7.93 3.772-2.515 1.058-4.924 2.089-7.467 3.27-1.274.586-2.574 1.228-3.95 1.898a148.836 148.836 0 0 0-4.422 2.048l1.512-1.217c-3.702 1.316-7.118 2.886-10.641 4.36-3.546 1.429-7.142 2.833-11.117 3.957l.831-.043c-2.048.744-2.89.948-4.963 1.715l.858-.203c-5.3 2.23-8.625 3.458-13.98 5.365-.43-.034 2.449-1.038 4.078-1.724-2.503.763-6.53 2.75-10.634 4.395-3.286 1.126-.058-.271.356-.524-6.117 2.584-10.606 4.359-14.608 6.047-3.999 1.694-7.515 3.294-11.607 5.64-.758.52 3.253-1.147-1.116.924 8.089-3.373 14.456-6.464 21.754-9.717l-2.049.834c5.541-3.184 4.511-1.666 13.848-5.737-2.385 1.29-6.486 2.94-8.057 3.764 11.137-3.736 15.456-6.595 23.025-8.51l-.796.324c1.652-.532 4.521-1.754 6.99-2.736-.86.197-3.345 1.04-5.03 1.574 2.495-1.004 3.65-1.824 4.44-2.286 2.96-.679 3.7-1.535 8.271-2.973 1.721-.24-3.657 1.654-5.278 2.435l5.338-2.168c4.924-1.884 4.987-1.49 7.494-2.237 4.083-1.851-2.502.752.729-.89.676-.2 1.62-.512 2.775-.914 1.154-.405 2.533-.865 4.011-1.526a731.383 731.383 0 0 0 10.31-4.48c3.676-1.8 7.474-3.768 11.006-5.58.89-.437 1.724-.943 2.543-1.418.817-.48 1.611-.944 2.376-1.39l4.16-2.472c-3.42 1.98-1.03 1.012-5.243 3.311 1.55-.776 6.852-3.964 6.753-4.22l1.297-.782 1.305-.853 2.705-1.737a421.85 421.85 0 0 1 5.634-3.507c3.709-2.44 7.337-4.882 10.466-6.881l-1.927 1.003 4.153-3.223a304.327 304.327 0 0 1 5.09-3.745c1.864-1.294 3.715-2.846 5.691-4.44l3.002-2.485c1.018-.851 2.051-1.727 3.032-2.697l-.176.15c1.292-1.218 2.386-2.46 3.764-3.93.69-.734 1.45-1.525 2.344-2.399.903-.862 1.854-1.898 3.038-3.002-.527.752-1.414 1.737-2.11 2.533-.716.775-1.252 1.349-1.006 1.35m-17.303 580.434l-4.399-4.395c-1.371-1.457-2.636-2.87-3.677-4.167.48.211 2.188 2.04 3.833 3.967-.372-.771-1.145-1.632-2.183-2.744-.518-.557-1.102-1.177-1.724-1.887a43.396 43.396 0 0 1-1.876-2.488c.206.34 1.171 1.665.29.744a6817.9 6817.9 0 0 0-2.212-2.764l-1.47-1.943c-.827-1.07-1.403-1.763-2.028-2.551-1.15-1.642-2.724-3.532-6.33-9.924-1.134-1.79-2.143-3.63-2.258-3.163a32.466 32.466 0 0 1-1.083-2.36l-.665-1.6-.791-1.975c-.241-.572-.47-1.208-.87-2.278-.384-1.079-1.03-2.556-1.855-4.911-.086.438.843 3.62.438 3.718l-.916-2.336-.731-2.092-1.25-3.463a215.52 215.52 0 0 0-1.693-5.034c-.487-1.41-.837-2.697-1.263-4.163a92.692 92.692 0 0 1-.642-2.392l-.604-2.974.488 1.733.315 1.212c.126.456.27.97.432 1.561.06-.32-.06-.931-.259-1.752-.181-.826-.46-1.858-.782-3.004a70.133 70.133 0 0 1-1.802-7.547l.578.394-.41-1.842c-.122-.662-.253-1.367-.387-2.1-.265-1.47-.584-3.058-.833-4.695-.224-1.64-.44-3.32-.622-4.955-.199-1.631-.237-3.231-.292-4.69l.358 1.295-.506-4.495c-.108-1.529-.218-3.077-.326-4.634l-.148-2.343-.071-2.352-.128-4.685c-.019-6.209.127-12.2.355-17.247l.645-5.414c.417-6.954.071-3.514-.349.396-.328 3.914-.732 8.305-.78 3.188.95-1.476.216-7.212 1.306-15.112.692-3.704-.54 8.035.24 3.93-.3-1.791.254-4.237.504-8.458.367.95.724-8.84 1.015-6.186a357.58 357.58 0 0 0-.062-14.938c.179-1.197.234-2.88.261-4.661.025-1.781.036-3.661-.051-5.257.054 2.015-.021 2.885-.082 3.196-.067.31-.152.065-.243-.15-.184-.431-.392-.737-.528 3.765.006 6.557-.332 15.318-1.068 24.46l-1.226 13.798c-.23 2.275-.347 4.53-.507 6.723l-.23 3.242c-.05 1.065-.102 2.112-.15 3.137.133.457.176 1.343.172 2.456-.018 1.114-.04 2.457-.06 3.826-.024 2.737-.116 5.582.192 6.889-.183.384-.318 1.622-.5 2.023.18 5.3.283 4.67.307 3.045.057-1.628.101-4.252.239-2.966.046 1.158.064 2.26.06 3.256.007.996.026 1.884.007 2.616-.027 1.463-.126 2.299-.245 2.092.17 3.793.311 3.995.351 3.735.062-.261.13-.986.46.928-.07 1.66-.16 3.326-.21 4.996.713 5.89 1.735 12.225 3.21 18.762 1.54 6.52 3.544 13.231 6.104 19.838a135.136 135.136 0 0 0 9.239 19.243c3.555 6.147 7.616 11.891 11.84 17.146l-.968-1.847c3.693 4.87 7.412 8.408 10.951 11.813l2.704 2.48 1.335 1.257 1.375 1.23c.916.83 1.831 1.685 2.751 2.578.928.884 1.901 1.759 2.867 2.712 1.027.68 2.016 1.407 3.07 2.046-1.709-1.069 1.287 1.782-1.404.04 2.703 1.924 5.396 4.24 8.285 6.113-1.61-1.24-3.227-2.468-4.778-3.783 1.773 1.188 3.62 2.448 5.12 3.592a47.23 47.23 0 0 1 1.958 1.569c.553.447.98.819 1.233 1.083 3.892 2.38 2.865 1.471.691-.202l-1.783-1.365-1.826-1.47c-1.167-.944-2.155-1.762-2.51-2.124-2.656-1.772-4.59-3.202-6.13-4.47a78.733 78.733 0 0 1-3.81-3.491c-2.207-2.263-4.34-4.481-8.81-8.64-5.415-5.29.265.863-.183.656m11.037 11.426a46.6 46.6 0 0 0 1.506 1.106c-.522-.4-1.016-.764-1.506-1.106m-48.306-187.258c-.027-.953-.058-2.076-.098-3.58-.13-1.208-.017.726.098 3.58m-4.057-35.768l-.214.026c.144.279.248.393.214-.026m-51.277-82.396l1.314 1.663a27.265 27.265 0 0 0-1.314-1.663"/><path d="M135.32 93.278c5.342-3.434 12.67-7.651 16.66-10.153l-.304.404c2.922-1.705 12.613-6.996 6.098-4.115l-1.45.95c-6.996 4.018-5.363 2.397-10.966 5.3-6.592 3.813-9.931 6.739-15.712 10.182-2.453 1.631-2.191 1.198-1.55.585-5.699 3.668-7.497 5.72-11.17 8.54-1.235-.108-5.359 3.1-9.945 7.311-2.31 2.087-4.676 4.483-6.95 6.746-2.239 2.303-4.37 4.491-6.186 6.24-4.044 4.877-9.186 11.782-12.271 19.305.78-2.013-.134-.339-.996 1.719-.467 1.011-.899 2.123-1.208 2.868-.315.74-.52 1.11-.473.653.002.615-.457 2.304-1.091 4.529-.27 1.127-.667 2.368-.932 3.713l-.458 2.047-.365 2.111c-1 5.656-.85 11.338-.203 12.017-.004 2.735.16 4.125.198 4.876.057.75.074.858.112 1.015.036.158.08.369.206 1.324l.263 2.078.617 3.693c-.161.003-.526-2.08-.71-2.903.642 5.005 2.098 7.406 2.794 11.513.718 2.433 1.248 3.704 1.51 4.384.276.676.354.737.402.673.046-.065.062-.254.212-.08.144.175.432.708 1.072 2.064 1.897 4.89 2.7 6.601 3.144 7.829.461 1.222.593 1.95 1.733 4.643.899.6 3.673 6.219 6.65 10.427-.686-1.083-4.198-7.306-1.633-3.382 3.082 5.254 4.561 7.203 5.953 9.081l6.215 8.182c1.45 2.512-.23.224-1.587-1.647-.685-.93-1.264-1.774-1.342-1.85-.08-.076.325.623 1.713 2.71-4.492-5.66-7.454-10.272-9.883-13.327 2.528 4.154 5.574 8.606 8.836 13.03 3.25 4.439 6.827 8.76 10.195 12.85 3.567 4.683-2.087-2.178.718 1.493 6.291 8.43 10.524 12.26 15.539 18.985l-1.337-1.155c3.522 3.725 11.52 14.527 17.76 22.01-.647-1.082-1.063-1.783-.184-.847-.742.391 8.784 10.331 14.09 18.384-.022-.462 1.424 1.133 3.324 3.434 1.862 2.331 4.197 5.356 5.885 7.792 1.074 1.796.645 1.552.515 1.603-2.618-4.076-4.13-5.878-5.524-7.448-1.382-1.578-2.722-2.872-5.103-5.864 4.09 4.898 9.985 13.603 13.284 18.07l-1.538-1.594c2.426 3.677 3.605 5.21 4.814 6.794a26.89 26.89 0 0 1 1.894 2.744c.349.569.73 1.214 1.156 1.974.432.756.902 1.63 1.388 2.68l-.687-.667c1.075 2.052 2.243 4.117 3.236 6.303.504 1.088 1.053 2.164 1.528 3.28.471 1.117.944 2.238 1.416 3.362 1.787 4.539 3.415 9.194 4.563 13.861l.465 1.736c.128.582.258 1.162.387 1.74l.758 3.439.61 3.395c.2 1.117.415 2.218.55 3.315.298 2.19.66 4.303.855 6.348.233 2.041.499 3.994.652 5.848.149.64.302-.923.362-2.7.039-1.774.05-3.77.127-3.974-.11-1.111-.282-2.158-.448-3.155l-.48-2.855c-.311-1.82-.738-3.468-1.08-5.059-.091-.396-.18-.789-.268-1.18-.106-.386-.21-.77-.316-1.152l-.624-2.284c-.384-1.532-.886-3.051-1.384-4.678l.477-.028c-.179-.352-.459-1.107-.762-1.97l-1.023-2.587c-.627-1.554-1.01-2.38-.437-.196-.933-2.602-1.272-3.589-1.568-4.706a28.87 28.87 0 0 0-.603-1.942c-.28-.806-.754-1.81-1.432-3.246.328.145.876 1.083 1.397 1.976.537.885.94 1.766 1.154 1.716a39.14 39.14 0 0 0-1.157-2.54l-1.207-2.512c.434.773.145-.008-.15-.798-.314-.78-.653-1.56-.194-.832-1.258-2.26-2.223-4.22-3.2-5.96l-1.334-2.547c-.424-.826-.878-1.609-1.305-2.41-.862-1.6-1.72-3.217-2.79-4.952l-1.695-2.764a140.86 140.86 0 0 0-2.085-3.067c1.064 1.657 2.133 3.312 3.131 5.014-.128.052-.631-.643-1.281-1.618-.664-.963-1.506-2.184-2.233-3.235a29.899 29.899 0 0 0-2.006-3.56c-.805-1.234-1.774-2.751-3.306-5.005-2.915-3.68-4.855-5.49-8.684-10.54.615.38-.93-1.75-2.676-4.125-1.762-2.364-3.737-4.962-3.928-5.563-1.232-.76-7.746-9.503-8.536-10.002-2.193-2.583-5.045-6.238-4.814-6.384l1.661 1.933-2.09-2.643c.245.213.204.09.46.393-1.867-2.352-2.18-2.142-4.419-5.348.126-.062 1.449 1.592 2.566 2.906-4.953-6.326-9.388-10.49-13.181-16.006-1.015-.888-6.783-8.141-5.972-6.238-1.404-2.078-.467-1.592-4.707-6.868-2.76-2.78-4.542-6.028-7.812-9.993 2.202 2.611 2.26 2.574 2.218 2.482-.036-.097-.136-.274 1.856 1.95-2.65-3.739-7.233-8.847-11.484-15.61-.346-.754-.214-.801-.563-1.558-.864-1.209-1.828-2.488-2.682-3.825-.872-1.325-1.673-2.684-2.193-4.044l-.107.477c-2.544-4.782-5.986-11.556-7.734-17.113-.537-1.006-.982-2.048-1.473-3.075a58.938 58.938 0 0 1-1.376-3.13c-1.075-4.446-2.312-9.624-3.098-14.663-.815-5.033-1.152-9.918-1.162-13.563.218-3.375 1.195-8.325 1.39-8.264-.14.763-.24 2.087-.399 3.612.208-1.21.394-2.494.72-3.75.149-.63.296-1.26.441-1.883l.512-1.814c.304-1.19.673-2.292.949-3.284.257-.998.514-1.858.638-2.555a60.76 60.76 0 0 1 .54-1.525c.17-.42.333-.76.471-1.051.28-.58.494-.947.7-1.272.397-.66.816-1.127 1.67-2.793 1.901-4.741 6.152-11.06 10.537-16.048 4.323-5.054 8.574-8.943 9.315-10.422l-2.756 2.606a144.37 144.37 0 0 0-3.43 3.444 86.028 86.028 0 0 0-7.404 8.833c1.14-1.796-.028-.591 1.784-2.963 2.488-3.17 4.6-5.384 6.767-7.525l1.636-1.619c.564-.534 1.14-1.079 1.736-1.646 1.173-1.155 2.496-2.327 3.943-3.727l-.224 1.164c5.324-4.347 10.37-8.517 15.292-12.286 4.926-3.755 9.751-7.058 14.61-9.426"/><path d="M76.333 171.368l.099-1.447.168-1.44c.114-.96.211-1.917.393-2.864l-.368.572-.292 5.179m.292-5.18c.11-1.173.132-2.314.248-3.368-.204 1.255-.275 2.477-.341 3.527l.093-.158zm78.861-84.353c1.149-.567 3.415-1.654 5.635-2.868-1.519.674-4.537 2.173-5.635 2.868m5.933-3.259l-2.648 1.214-.343.266c.998-.492 1.986-1 2.99-1.48m147.89-82.349c2.167-2.238 4.26-4.55 6.388-6.816a20.504 20.504 0 0 0 1.865-1.735l2.59-2.707c1.67-1.748 2.922-3.026 1.882-1.656 3.49-4.335 11.683-13.217 8.217-10.265-8.752 10.474-20.198 22.1-33.082 32.874-12.856 10.812-27.147 20.714-40.79 28.76l4.23-2.822a254.91 254.91 0 0 1-4.861 3.014 32.87 32.87 0 0 1-2.226 1.26l-2.119 1.115c-2.74 1.43-5.171 2.643-7.504 3.824-2.38 1.088-4.67 2.126-7.076 3.327a130.2 130.2 0 0 0-3.731 1.933c-1.289.708-2.695 1.347-4.16 2.135l1.404-1.23c-3.508 1.37-6.75 2.954-10.06 4.505-3.352 1.487-6.762 2.933-10.541 4.119l.799-.057c-1.942.775-2.745.985-4.709 1.785l.82-.216c-5.01 2.308-8.164 3.576-13.239 5.566-.418-.028 2.313-1.076 3.853-1.781-2.38.797-6.171 2.842-10.055 4.544-3.118 1.175-.069-.268.318-.526-5.778 2.673-10.028 4.51-13.81 6.259-3.779 1.75-7.096 3.399-10.931 5.801-.707.53 3.087-1.19-1.034.936 7.645-3.49 13.641-6.67 20.53-10.027l-1.936.866c5.197-3.26 4.274-1.733 13.09-5.936-2.239 1.322-6.12 3.028-7.595 3.876 10.568-3.9 14.602-6.815 21.815-8.843l-.754.337c1.568-.559 4.282-1.813 6.615-2.836-.818.21-3.175 1.094-4.777 1.648 2.362-1.035 3.437-1.874 4.178-2.345 2.823-.725 3.505-1.575 7.838-3.1 1.646-.273-3.443 1.724-4.975 2.52l5.046-2.254c4.655-1.967 4.741-1.56 7.124-2.346 3.857-1.898-2.38.786.663-.893 2.615-.74 9.116-3.718 16.182-7.138a930.28 930.28 0 0 0 10.419-5.61c3.26-1.97 6.255-3.81 8.584-5.273-3.244 1.959-.961 1-4.961 3.279 1.474-.77 6.496-3.926 6.39-4.18 3.149-2.158 6.771-4.512 10.36-6.807 3.49-2.437 7.004-4.734 9.938-6.747-.592.356-1.208.68-1.824 1 1.17-.927 2.445-2.04 3.931-3.157a284.162 284.162 0 0 1 4.863-3.618c.887-.63 1.761-1.333 2.661-2.057l2.768-2.24c1.869-1.56 3.88-3.137 5.762-4.998l-.169.143c1.24-1.166 2.287-2.36 3.608-3.77a72.346 72.346 0 0 1 2.248-2.303 78.346 78.346 0 0 1 2.913-2.88c-1.005 1.45-3.425 3.76-2.973 3.743M275.27 94.873c4.6-3.602 10.938-8.116 14.389-10.742l-.237.408c1.281-.885 4.01-2.77 5.708-4.034 1.722-1.226 2.396-1.86-.496-.305l-1.236 1.017c-6.065 4.291-4.766 2.568-9.639 5.736a97.428 97.428 0 0 0-3.838 2.845l-3.176 2.674a111.431 111.431 0 0 1-3.082 2.54c-1.05.861-2.143 1.758-3.395 2.672-2.116 1.696-1.922 1.265-1.392.642-2.498 1.87-4.015 3.443-5.386 4.794l-4.053 4.065c-.588-.01-1.742.822-3.259 2.16-.378.335-.782.7-1.2 1.096l-1.256 1.315c-.863.93-1.796 1.938-2.77 2.99-.992 1.032-1.912 2.211-2.876 3.362l-2.89 3.438a103.75 103.75 0 0 1-2.671 3.347c-.877 1.044-1.745 1.994-2.477 2.891-3.346 4.785-7.448 11.53-9.956 18.556.545-1.918-.112-.295-.884 1.603-.844 1.871-1.444 4.144-1.449 3.28.07.583-.313 2.144-.915 4.185-.28 1.026-.492 2.207-.786 3.43l-.433 1.88c-.142.637-.318 1.275-.387 1.93-.184 1.304-.365 2.603-.537 3.827l-.226 1.775a51.21 51.21 0 0 0-.048 1.625c-.035 2.036.04 3.494.326 3.827-.136 1.255-.05 2.205-.065 2.926l.022 1.562c.015.693.03.791.05.94.092.292-.09.793.533 6.579-.136-.01-.369-1.941-.486-2.708.173 2.303.446 4.062.827 5.69.416 1.625.772 3.15.878 5.08.19 1.154.442 2.018.63 2.684.187.666.323 1.13.428 1.45.207.639.28.7.331.643.106-.113.139-.688 1.022 1.925.157.582.278 1.125.43 1.614l.434 1.34.652 2.061c.35 1.136.545 1.845.685 2.43.26 1.182.364 1.842 1.175 4.41.433.296 1.14 1.797 2.002 3.757a107.11 107.11 0 0 0 3.255 6.343c-.492-1.074-3.262-7.035-1.184-3.25 1.222 2.52 2.03 4.31 2.81 5.627a95.143 95.143 0 0 0 1.92 3.17c.569.913 1.127 1.806 1.89 3.026.75 1.226 1.796 2.728 3.187 4.947 2.24 4.85-5.484-8.899-1.092-.792-.918-1.384-1.823-2.663-2.568-3.92a8303.28 8303.28 0 0 1-2.087-3.525 130.3 130.3 0 0 0-1.839-3.008c-.579-.914-1.048-1.78-1.553-2.526.925 2.04 2.106 4.084 3.283 6.214l1.802 3.23c.612 1.085 1.314 2.132 1.978 3.21 1.361 2.133 2.681 4.324 4.111 6.412l4.235 6.167c2.894 4.58-1.761-2.15.517 1.44 5.038 8.274 8.744 12.034 12.808 18.601l-1.161-1.147c1.483 1.837 3.85 5.386 6.536 9.364 2.673 3.985 5.623 8.43 8.28 12.042-.518-1.039-.852-1.713-.092-.804-.751.348 7.448 10.007 11.993 17.62.048-.883 5.109 6.066 8.198 10.55.958 1.666.538 1.456.416 1.503-4.734-7.543-5.271-6.842-9.456-12.51 1.788 2.33 3.947 5.56 6.082 8.693 1.07 1.565 2.127 3.109 3.098 4.526.96 1.423 1.855 2.705 2.629 3.725l-1.432-1.462c2.183 3.422 3.343 4.788 4.496 6.217 1.13 1.443 2.212 2.978 4.256 6.705l-.691-.568c2.296 3.604 4.34 7.569 6.506 11.508.556.977 1.042 1.993 1.523 3.013l1.457 3.047 1.454 3.035c.237.506.495 1 .712 1.513l.633 1.54c.849 2.044 1.685 4.064 2.505 6.043l.619 1.473c.176.5.353.995.528 1.488.348.987.693 1.96 1.032 2.918l2.017 5.545c.55 1.809 1.093 3.535 1.629 5.164.543 1.095-.698-5.752-.68-6.145-1.452-3.85-2.621-6.873-3.802-9.622-1.302-2.703-2.51-5.176-3.812-8.018l.462-.108c-.376-.61-1.516-2.547-2.285-3.882-.782-1.33-1.247-2.033-.45-.113-1.225-2.234-1.554-3.144-1.93-4.141-.19-.496-.382-1.02-.72-1.73-.362-.697-.864-1.584-1.63-2.83.655.195 2.42 3.206 2.758 3.097-.838-1.487-1.775-2.917-2.656-4.377.95 1.327-1.335-2.753-.412-1.477-2.492-4.032-4.227-6.82-5.862-9.731-.838-1.441-1.617-2.936-2.622-4.513a144.72 144.72 0 0 0-3.501-5.333l2.882 4.601c-.252.11-1.92-2.51-3.262-4.436a34.41 34.41 0 0 0-1.764-3.322l-2.944-4.656c-2.591-3.45-4.325-5.172-7.643-9.966 1.129.731-5.266-8.126-5.53-9.263-1.131-.735-6.57-9.166-7.272-9.668-1.848-2.508-4.213-6.06-3.973-6.19l1.398 1.882-1.737-2.568c.215.21.188.092.404.388-1.553-2.286-1.878-2.099-3.698-5.203.129-.054 1.23 1.553 2.169 2.833-4.123-6.134-7.879-10.283-10.933-15.632-.91-.861-5.589-7.99-5.038-6.153-1.101-2.032-.254-1.53-3.728-6.7-1.171-1.372-2.087-2.85-3.064-4.46-.994-1.6-1.934-3.392-3.31-5.32 3.694 5.084.117-.037 3.398 4.374-1.049-1.839-2.49-4.022-4.175-6.525-.416-.63-.864-1.268-1.287-1.947l-1.256-2.12a142.05 142.05 0 0 1-2.59-4.612c-.268-.713-.144-.745-.374-1.48-1.316-2.382-3.09-5.03-3.821-7.608l-.17.442a210.195 210.195 0 0 0-1.484-3.777l-.824-2.04c-.285-.689-.57-1.39-.791-2.115l-1.402-4.305c-.22-.708-.441-1.403-.636-2.088l-.438-2.03-1.126-2.932c-.374-.981-.777-1.959-1.05-2.969a88.91 88.91 0 0 0-.45-3.244l-.278-1.684-.149-.853-.09-.869a158.649 158.649 0 0 0-.422-3.513c-.148-1.176-.354-2.349-.394-3.521l-.265-3.46-.147-1.674c-.027-.552-.017-1.093-.03-1.625l-.066-3.057c-.017-.967-.092-1.884-.021-2.717.214-1.54.495-3.455.742-4.979.11-.763.336-1.408.451-1.873.13-.465.223-.738.257-.727-.052.354-.12.832-.2 1.397-.037.282-.094.583-.125.906l-.068 1.019c.106-1.128.445-2.28.713-3.443l.815-3.422c.639-2.171 1.228-4.098 1.347-5.412.272-1.135.626-1.853.858-2.398.245-.539.437-.881.622-1.186.372-.61.715-1.067 1.393-2.653 1.629-4.395 4.912-10.571 8.629-15.442l1.293-1.84 1.326-1.675c.855-1.083 1.64-2.094 2.319-3.003.658-.926 1.309-1.67 1.77-2.32.469-.643.788-1.16.92-1.52l-2.334 2.596-2.817 3.476-1.571 1.953-1.512 2.154-1.545 2.235c-.259.377-.517.757-.777 1.138-.244.39-.468.794-.701 1.192.883-1.749-.131-.578 1.393-2.863a148.475 148.475 0 0 1 2.855-4.103c.962-1.17 1.852-2.256 2.744-3.34l1.343-1.638c.448-.557.963-1.077 1.46-1.648 1.01-1.13 2.077-2.356 3.267-3.778l-.053 1.13.825-.847.855-.808c.56-.546 1.117-1.087 1.67-1.624 1.106-1.076 2.137-2.198 3.219-3.243a248.729 248.729 0 0 0 3.194-3.108c1.038-1.036 2.062-2.059 3.13-3.002 4.164-3.892 8.29-7.35 12.555-9.915"/><path d="M225.376 171.091l.294-2.652.515-2.62-.375.515c-.066.82-.208 1.638-.25 2.443a38 38 0 0 1-.184 2.314m.434-4.757c.109-1.081.19-2.126.255-3.104a50.667 50.667 0 0 0-.35 3.247l.095-.143z"/></g></svg>