<?xml version="1.0" encoding="UTF-8"?>
<svg width="245px" height="367px" viewBox="0 0 245 367" version="1.1" xmlns="http://www.w3.org/2000/svg" xmlns:xlink="http://www.w3.org/1999/xlink">
    <!-- Generator: Sketch 55.1 (78136) - https://sketchapp.com -->
    <title>Group 23</title>
    <desc>Created with Sketch.</desc>
    <g id="Use-Cases-Page-1114" stroke="none" stroke-width="1" fill="none" fill-rule="evenodd">
        <g transform="translate(-1355.000000, -3783.000000)">
            <g id="Section-1" transform="translate(-82.000000, 36.000000)">
                <g id="Group-23" transform="translate(1437.347514, 3732.000000)">
                    <g id="Group-8" transform="translate(-0.000000, 0.000000)">
                        <path d="M295.334187,2.84217094e-14 C215.339957,15.8214885 175.342842,55.9834856 175.342842,120.485991 C175.342842,217.23975 173.82837,234.114113 135.868871,253.472481 C97.9093714,272.830848 112.840352,308.066741 98.3979107,321.538211 C83.9554693,335.009681 17.8255757,343.460855 -3.12638804e-13,381.921662 L295.334187,381.921662 L295.334187,2.84217094e-14 Z" id="Path-12" fill="#00C189" opacity="0.200000003"></path>
                        <g id="Group-11" transform="translate(76.418200, 69.239750)" stroke="#00C189" stroke-linecap="round" stroke-linejoin="round" stroke-width="2">
                            <g id="Group-10" transform="translate(60.000000, 84.000000)">
                                <path d="M2.84217094e-14,0.5 L7.11046073,0.5" id="Path-5"></path>
                                <path d="M20,0.5 L27.1104607,0.5" id="Path-5-Copy"></path>
                                <path d="M40,0.5 L47.1104607,0.5" id="Path-5-Copy-2"></path>
                                <path d="M60,0.5 L67.1104607,0.5" id="Path-5-Copy-3"></path>
                                <path d="M80,0.5 L87.1104607,0.5" id="Path-5-Copy-4"></path>
                                <path d="M100,0.5 L107.110461,0.5" id="Path-5-Copy-5"></path>
                            </g>
                            <g id="Group-10-Copy-13" transform="translate(80.000000, 21.000000)">
                                <path d="M2.84217094e-14,0.5 L7.11046073,0.5" id="Path-5"></path>
                                <path d="M20,0.5 L27.1104607,0.5" id="Path-5-Copy"></path>
                                <path d="M40,0.5 L47.1104607,0.5" id="Path-5-Copy-2"></path>
                                <path d="M60,0.5 L67.1104607,0.5" id="Path-5-Copy-3"></path>
                                <path d="M80,0.5 L87.1104607,0.5" id="Path-5-Copy-4"></path>
                            </g>
                            <g id="Group-10-Copy-14" transform="translate(140.000000, 0.000000)">
                                <path d="M2.84217094e-14,0.5 L7.11046073,0.5" id="Path-5"></path>
                                <path d="M20,0.5 L27.1104607,0.5" id="Path-5-Copy"></path>
                            </g>
                            <g id="Group-10-Copy" transform="translate(70.000000, 105.000000)">
                                <path d="M2.84217094e-14,0.5 L7.11046073,0.5" id="Path-5"></path>
                                <path d="M20,0.5 L27.1104607,0.5" id="Path-5-Copy"></path>
                                <path d="M40,0.5 L47.1104607,0.5" id="Path-5-Copy-2"></path>
                            </g>
                            <g id="Group-10-Copy-3" transform="translate(40.000000, 126.000000)">
                                <path d="M2.84217094e-14,0.5 L7.11046073,0.5" id="Path-5"></path>
                                <path d="M20,0.5 L27.1104607,0.5" id="Path-5-Copy"></path>
                                <path d="M40,0.5 L47.1104607,0.5" id="Path-5-Copy-2"></path>
                                <path d="M60,0.5 L67.1104607,0.5" id="Path-5-Copy-3"></path>
                            </g>
                            <g id="Group-10-Copy-2" transform="translate(100.000000, 147.000000)">
                                <path d="M0,0.5 L7.11046073,0.5" id="Path-5-Copy"></path>
                                <path d="M20,0.5 L27.1104607,0.5" id="Path-5-Copy-2"></path>
                                <path d="M40,0.5 L47.1104607,0.5" id="Path-5-Copy-3"></path>
                                <path d="M60,0.5 L67.1104607,0.5" id="Path-5-Copy-4"></path>
                            </g>
                            <g id="Group-10-Copy-5" transform="translate(40.000000, 168.000000)">
                                <path d="M2.84217094e-14,0.5 L7.11046073,0.5" id="Path-5"></path>
                                <path d="M60,0.5 L67.1104607,0.5" id="Path-5-Copy-3"></path>
                                <path d="M80,0.5 L87.1104607,0.5" id="Path-5-Copy-4"></path>
                                <path d="M100,0.5 L107.110461,0.5" id="Path-5-Copy-5"></path>
                                <path d="M120,0.5 L127.110461,0.5" id="Path-5-Copy-6"></path>
                            </g>
                            <g id="Group-10-Copy-4" transform="translate(90.000000, 189.000000)">
                                <path d="M2.84217094e-14,0.5 L7.11046073,0.5" id="Path-5"></path>
                                <path d="M20,0.5 L27.1104607,0.5" id="Path-5-Copy"></path>
                                <path d="M40,0.5 L47.1104607,0.5" id="Path-5-Copy-2"></path>
                                <path d="M60,0.5 L67.1104607,0.5" id="Path-5-Copy-3"></path>
                            </g>
                            <g id="Group-10-Copy-7" transform="translate(30.000000, 210.000000)">
                                <path d="M2.84217094e-14,0.5 L7.11046073,0.5" id="Path-5"></path>
                                <path d="M60,0.5 L67.1104607,0.5" id="Path-5-Copy-3"></path>
                                <path d="M80,0.5 L87.1104607,0.5" id="Path-5-Copy-4"></path>
                                <path d="M100,0.5 L107.110461,0.5" id="Path-5-Copy-5"></path>
                                <path d="M120,0.5 L127.110461,0.5" id="Path-5-Copy-6"></path>
                            </g>
                            <g id="Group-10-Copy-6" transform="translate(0.000000, 231.000000)">
                                <path d="M2.84217094e-14,0.5 L7.11046073,0.5" id="Path-5"></path>
                                <path d="M20,0.5 L27.1104607,0.5" id="Path-5-Copy"></path>
                                <path d="M80,0.5 L87.1104607,0.5" id="Path-5-Copy-4"></path>
                                <path d="M100,0.5 L107.110461,0.5" id="Path-5-Copy-5"></path>
                                <path d="M120,0.5 L127.110461,0.5" id="Path-5-Copy-6"></path>
                            </g>
                            <g id="Group-10-Copy-9" transform="translate(144.000000, 63.000000)">
                                <path d="M0,0.5 L7.11046073,0.5" id="Path-5-Copy-2"></path>
                                <path d="M20,0.5 L27.1104607,0.5" id="Path-5-Copy-3"></path>
                            </g>
                            <g id="Group-10-Copy-8" transform="translate(70.000000, 252.000000)">
                                <path d="M2.84217094e-14,0.5 L7.11046073,0.5" id="Path-5"></path>
                                <path d="M40,0.5 L47.1104607,0.5" id="Path-5-Copy-2"></path>
                                <path d="M80,0.5 L87.1104607,0.5" id="Path-5-Copy-4"></path>
                            </g>
                        </g>
                    </g>
                </g>
            </g>
        </g>
    </g>
</svg>